<svg xmlns="http://www.w3.org/2000/svg" xmlns:xlink="http://www.w3.org/1999/xlink" width="279" zoomAndPan="magnify" viewBox="0 0 209.25 60" height="80" preserveAspectRatio="xMidYMid meet" version="1.0"><defs><g/><clipPath id="57abf6de0f"><path d="M 50.445312 6.085938 L 95.285156 6.085938 L 95.285156 53.914062 L 50.445312 53.914062 Z M 50.445312 6.085938 " clip-rule="nonzero"/></clipPath></defs><g clip-path="url(#57abf6de0f)"><path fill="#050a30" d="M 74.769531 6.082031 C 78.769531 7.21875 82.222656 9.175781 84.976562 11.902344 C 89.457031 16.335938 91.828125 22.496094 91.828125 29.714844 L 91.828125 29.847656 C 91.828125 37.085938 89.433594 43.3125 84.90625 47.851562 C 82.054688 50.710938 78.480469 52.753906 74.34375 53.910156 L 95.277344 53.910156 L 95.277344 6.082031 Z M 62.921875 46.0625 L 66.710938 46.0625 C 76.71875 46.0625 82.695312 40.089844 82.695312 30.082031 L 82.695312 29.882812 C 82.695312 19.875 76.71875 13.898438 66.710938 13.898438 L 50.480469 13.898438 L 50.480469 16.464844 L 66.140625 16.464844 C 74.308594 16.464844 79.585938 21.742188 79.585938 29.914062 L 79.585938 30.046875 C 79.585938 34.152344 78.292969 37.578125 75.847656 39.960938 C 73.46875 42.277344 70.113281 43.5 66.140625 43.5 L 62.921875 43.5 L 62.921875 40.347656 L 66.140625 40.347656 C 72.589844 40.347656 76.441406 36.496094 76.441406 30.046875 L 76.441406 29.914062 C 76.441406 23.464844 72.589844 19.617188 66.140625 19.617188 L 50.449219 19.617188 L 50.449219 25.949219 L 50.449219 25.929688 L 50.652344 53.910156 L 52.484375 53.910156 L 52.28125 25.914062 L 55.425781 25.894531 L 55.628906 53.910156 L 57.527344 53.910156 L 57.324219 25.910156 L 60.46875 25.890625 L 60.671875 53.910156 L 62.921875 53.910156 Z M 66.066406 51.882812 L 66.066406 49.21875 L 66.710938 49.21875 C 72.382812 49.21875 77.167969 47.480469 80.539062 44.195312 C 84.007812 40.820312 85.839844 35.941406 85.839844 30.082031 L 85.839844 29.882812 C 85.839844 24.058594 84.007812 19.191406 80.542969 15.804688 C 77.15625 12.496094 72.375 10.746094 66.710938 10.746094 L 50.449219 10.746094 L 50.449219 8.078125 L 65.957031 8.078125 C 79.976562 8.078125 88.683594 16.367188 88.683594 29.714844 L 88.683594 29.847656 C 88.683594 43.121094 79.816406 51.734375 66.066406 51.882812 " fill-opacity="1" fill-rule="nonzero"/></g><g fill="#050a30" fill-opacity="1"><g transform="translate(97.619535, 27.820699)"><g><path d="M 3.609375 -6.546875 C 4.179688 -6.546875 4.679688 -6.445312 5.109375 -6.25 C 5.535156 -6.0625 5.863281 -5.785156 6.09375 -5.421875 C 6.332031 -5.066406 6.453125 -4.648438 6.453125 -4.171875 C 6.453125 -3.691406 6.332031 -3.269531 6.09375 -2.90625 C 5.863281 -2.550781 5.535156 -2.273438 5.109375 -2.078125 C 4.679688 -1.890625 4.179688 -1.796875 3.609375 -1.796875 L 2.296875 -1.796875 L 2.296875 0 L 0.78125 0 L 0.78125 -6.546875 Z M 3.515625 -3.03125 C 3.972656 -3.03125 4.320312 -3.128906 4.5625 -3.328125 C 4.800781 -3.523438 4.921875 -3.804688 4.921875 -4.171875 C 4.921875 -4.535156 4.800781 -4.816406 4.5625 -5.015625 C 4.320312 -5.210938 3.972656 -5.3125 3.515625 -5.3125 L 2.296875 -5.3125 L 2.296875 -3.03125 Z M 3.515625 -3.03125 "/></g></g></g><g fill="#050a30" fill-opacity="1"><g transform="translate(108.407129, 27.820699)"><g><path d="M 3.6875 0.109375 C 2.75 0.109375 2.019531 -0.144531 1.5 -0.65625 C 0.976562 -1.175781 0.71875 -1.914062 0.71875 -2.875 L 0.71875 -6.546875 L 2.234375 -6.546875 L 2.234375 -2.9375 C 2.234375 -1.757812 2.71875 -1.171875 3.6875 -1.171875 C 4.164062 -1.171875 4.53125 -1.3125 4.78125 -1.59375 C 5.03125 -1.882812 5.15625 -2.332031 5.15625 -2.9375 L 5.15625 -6.546875 L 6.640625 -6.546875 L 6.640625 -2.875 C 6.640625 -1.914062 6.378906 -1.175781 5.859375 -0.65625 C 5.335938 -0.144531 4.613281 0.109375 3.6875 0.109375 Z M 3.6875 0.109375 "/></g></g></g><g fill="#050a30" fill-opacity="1"><g transform="translate(119.717766, 27.820699)"><g><path d="M 2.296875 -5.328125 L 2.296875 -3.59375 L 5.3125 -3.59375 L 5.3125 -2.375 L 2.296875 -2.375 L 2.296875 0 L 0.78125 0 L 0.78125 -6.546875 L 5.71875 -6.546875 L 5.71875 -5.328125 Z M 2.296875 -5.328125 "/></g></g></g><g fill="#050a30" fill-opacity="1"><g transform="translate(129.636754, 27.820699)"><g><path d="M 2.296875 -5.328125 L 2.296875 -3.59375 L 5.3125 -3.59375 L 5.3125 -2.375 L 2.296875 -2.375 L 2.296875 0 L 0.78125 0 L 0.78125 -6.546875 L 5.71875 -6.546875 L 5.71875 -5.328125 Z M 2.296875 -5.328125 "/></g></g></g><g fill="#050a30" fill-opacity="1"><g transform="translate(139.555743, 27.820699)"><g><path d="M 0.78125 -6.546875 L 2.296875 -6.546875 L 2.296875 -1.234375 L 5.5625 -1.234375 L 5.5625 0 L 0.78125 0 Z M 0.78125 -6.546875 "/></g></g></g><g fill="#050a30" fill-opacity="1"><g transform="translate(149.147828, 27.820699)"><g><path d="M 5.84375 -1.21875 L 5.84375 0 L 0.78125 0 L 0.78125 -6.546875 L 5.71875 -6.546875 L 5.71875 -5.328125 L 2.28125 -5.328125 L 2.28125 -3.90625 L 5.3125 -3.90625 L 5.3125 -2.734375 L 2.28125 -2.734375 L 2.28125 -1.21875 Z M 5.84375 -1.21875 "/></g></g></g><g fill="#050a30" fill-opacity="1"><g transform="translate(107.357785, 38.429779)"><g><path d="M 3.53125 -6.546875 C 4.382812 -6.546875 5.050781 -6.34375 5.53125 -5.9375 C 6.019531 -5.53125 6.265625 -4.972656 6.265625 -4.265625 C 6.265625 -3.554688 6.019531 -3 5.53125 -2.59375 C 5.050781 -2.1875 4.382812 -1.984375 3.53125 -1.984375 L 1.921875 -1.984375 L 1.921875 0 L 0.984375 0 L 0.984375 -6.546875 Z M 3.515625 -2.796875 C 4.109375 -2.796875 4.554688 -2.921875 4.859375 -3.171875 C 5.171875 -3.429688 5.328125 -3.796875 5.328125 -4.265625 C 5.328125 -4.742188 5.171875 -5.109375 4.859375 -5.359375 C 4.554688 -5.609375 4.109375 -5.734375 3.515625 -5.734375 L 1.921875 -5.734375 L 1.921875 -2.796875 Z M 3.515625 -2.796875 "/></g></g></g><g fill="#050a30" fill-opacity="1"><g transform="translate(118.241618, 38.429779)"><g><path d="M 3.9375 0.078125 C 3.28125 0.078125 2.6875 -0.0664062 2.15625 -0.359375 C 1.625 -0.648438 1.207031 -1.050781 0.90625 -1.5625 C 0.601562 -2.070312 0.453125 -2.644531 0.453125 -3.28125 C 0.453125 -3.90625 0.601562 -4.472656 0.90625 -4.984375 C 1.207031 -5.492188 1.625 -5.894531 2.15625 -6.1875 C 2.6875 -6.476562 3.28125 -6.625 3.9375 -6.625 C 4.59375 -6.625 5.1875 -6.476562 5.71875 -6.1875 C 6.25 -5.894531 6.660156 -5.492188 6.953125 -4.984375 C 7.253906 -4.484375 7.40625 -3.914062 7.40625 -3.28125 C 7.40625 -2.644531 7.253906 -2.070312 6.953125 -1.5625 C 6.660156 -1.050781 6.25 -0.648438 5.71875 -0.359375 C 5.1875 -0.0664062 4.59375 0.078125 3.9375 0.078125 Z M 3.9375 -0.765625 C 4.414062 -0.765625 4.847656 -0.867188 5.234375 -1.078125 C 5.617188 -1.296875 5.921875 -1.597656 6.140625 -1.984375 C 6.367188 -2.367188 6.484375 -2.800781 6.484375 -3.28125 C 6.484375 -3.75 6.367188 -4.175781 6.140625 -4.5625 C 5.921875 -4.945312 5.617188 -5.25 5.234375 -5.46875 C 4.847656 -5.6875 4.414062 -5.796875 3.9375 -5.796875 C 3.457031 -5.796875 3.019531 -5.6875 2.625 -5.46875 C 2.238281 -5.25 1.9375 -4.945312 1.71875 -4.5625 C 1.5 -4.175781 1.390625 -3.75 1.390625 -3.28125 C 1.390625 -2.800781 1.5 -2.367188 1.71875 -1.984375 C 1.9375 -1.597656 2.238281 -1.296875 2.625 -1.078125 C 3.019531 -0.867188 3.457031 -0.765625 3.9375 -0.765625 Z M 3.9375 -0.765625 "/></g></g></g><g fill="#050a30" fill-opacity="1"><g transform="translate(130.2307, 38.429779)"><g><path d="M 2.890625 0.078125 C 2.398438 0.078125 1.925781 0 1.46875 -0.15625 C 1.007812 -0.3125 0.648438 -0.507812 0.390625 -0.75 L 0.734375 -1.484375 C 0.984375 -1.253906 1.300781 -1.066406 1.6875 -0.921875 C 2.082031 -0.785156 2.484375 -0.71875 2.890625 -0.71875 C 3.429688 -0.71875 3.835938 -0.804688 4.109375 -0.984375 C 4.378906 -1.171875 4.515625 -1.421875 4.515625 -1.734375 C 4.515625 -1.953125 4.441406 -2.128906 4.296875 -2.265625 C 4.148438 -2.410156 3.96875 -2.519531 3.75 -2.59375 C 3.53125 -2.675781 3.222656 -2.765625 2.828125 -2.859375 C 2.335938 -2.972656 1.941406 -3.085938 1.640625 -3.203125 C 1.335938 -3.328125 1.078125 -3.507812 0.859375 -3.75 C 0.648438 -4 0.546875 -4.332031 0.546875 -4.75 C 0.546875 -5.101562 0.632812 -5.421875 0.8125 -5.703125 C 1 -5.984375 1.28125 -6.207031 1.65625 -6.375 C 2.03125 -6.539062 2.492188 -6.625 3.046875 -6.625 C 3.429688 -6.625 3.8125 -6.570312 4.1875 -6.46875 C 4.5625 -6.375 4.882812 -6.234375 5.15625 -6.046875 L 4.84375 -5.296875 C 4.570312 -5.472656 4.28125 -5.601562 3.96875 -5.6875 C 3.65625 -5.78125 3.347656 -5.828125 3.046875 -5.828125 C 2.515625 -5.828125 2.113281 -5.726562 1.84375 -5.53125 C 1.582031 -5.34375 1.453125 -5.097656 1.453125 -4.796875 C 1.453125 -4.566406 1.523438 -4.378906 1.671875 -4.234375 C 1.828125 -4.097656 2.015625 -3.988281 2.234375 -3.90625 C 2.460938 -3.832031 2.765625 -3.753906 3.140625 -3.671875 C 3.640625 -3.546875 4.035156 -3.425781 4.328125 -3.3125 C 4.628906 -3.195312 4.882812 -3.015625 5.09375 -2.765625 C 5.3125 -2.523438 5.421875 -2.195312 5.421875 -1.78125 C 5.421875 -1.4375 5.328125 -1.125 5.140625 -0.84375 C 4.953125 -0.5625 4.664062 -0.335938 4.28125 -0.171875 C 3.90625 -0.00390625 3.441406 0.078125 2.890625 0.078125 Z M 2.890625 0.078125 "/></g></g></g><g fill="#050a30" fill-opacity="1"><g transform="translate(140.168521, 38.429779)"><g><path d="M 2.28125 -5.734375 L 0.03125 -5.734375 L 0.03125 -6.546875 L 5.453125 -6.546875 L 5.453125 -5.734375 L 3.203125 -5.734375 L 3.203125 0 L 2.28125 0 Z M 2.28125 -5.734375 "/></g></g></g></svg>