<svg xmlns="http://www.w3.org/2000/svg" xmlns:xlink="http://www.w3.org/1999/xlink" width="300" zoomAndPan="magnify" viewBox="0 0 224.87999 67.499998" height="90" preserveAspectRatio="xMidYMid meet" version="1.0"><defs><g/><clipPath id="4ad1f36c0b"><path d="M 0.765625 0 L 223.992188 0 L 223.992188 67.003906 L 0.765625 67.003906 Z M 0.765625 0 " clip-rule="nonzero"/></clipPath></defs><g clip-path="url(#4ad1f36c0b)"><path fill="#ffffff" d="M 0.765625 0 L 224.113281 0 L 224.113281 74.449219 L 0.765625 74.449219 Z M 0.765625 0 " fill-opacity="1" fill-rule="nonzero"/><path fill="#ffffff" d="M 0.765625 0 L 224.113281 0 L 224.113281 67.003906 L 0.765625 67.003906 Z M 0.765625 0 " fill-opacity="1" fill-rule="nonzero"/><path fill="#d90429" d="M 0.765625 0 L 224.113281 0 L 224.113281 67.003906 L 0.765625 67.003906 Z M 0.765625 0 " fill-opacity="1" fill-rule="nonzero"/></g><g fill="#ffffff" fill-opacity="1"><g transform="translate(9.166225, 45.398712)"><g><path d="M 25.984375 -24.71875 L 25.984375 0 L 20.234375 0 L 9.328125 -13.171875 L 9.328125 0 L 2.46875 0 L 2.46875 -24.71875 L 8.234375 -24.71875 L 19.140625 -11.546875 L 19.140625 -24.71875 Z M 25.984375 -24.71875 "/></g></g></g><g fill="#ffffff" fill-opacity="1"><g transform="translate(40.805926, 45.398712)"><g><path d="M 22.3125 -5.40625 L 22.3125 0 L 2.46875 0 L 2.46875 -24.71875 L 21.859375 -24.71875 L 21.859375 -19.3125 L 9.390625 -19.3125 L 9.390625 -15.15625 L 20.375 -15.15625 L 20.375 -9.921875 L 9.390625 -9.921875 L 9.390625 -5.40625 Z M 22.3125 -5.40625 "/></g></g></g><g fill="#ffffff" fill-opacity="1"><g transform="translate(67.713879, 45.398712)"><g><path d="M 41.25 -24.71875 L 33.234375 0 L 25.75 0 L 21.015625 -15.046875 L 16.0625 0 L 8.578125 0 L 0.5625 -24.71875 L 7.765625 -24.71875 L 12.75 -8.9375 L 17.96875 -24.71875 L 24.40625 -24.71875 L 29.375 -8.796875 L 34.578125 -24.71875 Z M 41.25 -24.71875 "/></g></g></g><g fill="#ffffff" fill-opacity="1"><g transform="translate(112.701328, 45.398712)"><g><path d="M 11.15625 0.5 C 9.15625 0.5 7.210938 0.253906 5.328125 -0.234375 C 3.441406 -0.734375 1.910156 -1.394531 0.734375 -2.21875 L 3.03125 -7.375 C 4.144531 -6.644531 5.429688 -6.054688 6.890625 -5.609375 C 8.347656 -5.160156 9.78125 -4.9375 11.1875 -4.9375 C 13.875 -4.9375 15.21875 -5.609375 15.21875 -6.953125 C 15.21875 -7.660156 14.832031 -8.1875 14.0625 -8.53125 C 13.300781 -8.875 12.070312 -9.234375 10.375 -9.609375 C 8.519531 -10.003906 6.96875 -10.429688 5.71875 -10.890625 C 4.46875 -11.347656 3.394531 -12.082031 2.5 -13.09375 C 1.613281 -14.113281 1.171875 -15.484375 1.171875 -17.203125 C 1.171875 -18.703125 1.582031 -20.054688 2.40625 -21.265625 C 3.226562 -22.484375 4.457031 -23.445312 6.09375 -24.15625 C 7.726562 -24.863281 9.734375 -25.21875 12.109375 -25.21875 C 13.734375 -25.21875 15.332031 -25.035156 16.90625 -24.671875 C 18.488281 -24.304688 19.878906 -23.769531 21.078125 -23.0625 L 18.921875 -17.875 C 16.566406 -19.144531 14.285156 -19.78125 12.078125 -19.78125 C 10.691406 -19.78125 9.679688 -19.570312 9.046875 -19.15625 C 8.410156 -18.738281 8.09375 -18.203125 8.09375 -17.546875 C 8.09375 -16.890625 8.46875 -16.394531 9.21875 -16.0625 C 9.96875 -15.738281 11.179688 -15.398438 12.859375 -15.046875 C 14.734375 -14.640625 16.289062 -14.207031 17.53125 -13.75 C 18.769531 -13.289062 19.84375 -12.5625 20.75 -11.5625 C 21.65625 -10.5625 22.109375 -9.203125 22.109375 -7.484375 C 22.109375 -6.003906 21.695312 -4.660156 20.875 -3.453125 C 20.050781 -2.253906 18.8125 -1.296875 17.15625 -0.578125 C 15.507812 0.140625 13.507812 0.5 11.15625 0.5 Z M 11.15625 0.5 "/></g></g></g><g fill="#ffffff" fill-opacity="1"><g transform="translate(138.726496, 45.398712)"><g><path d="M 15.71875 -8.859375 L 15.71875 0 L 8.71875 0 L 8.71875 -8.96875 L -0.703125 -24.71875 L 6.671875 -24.71875 L 12.53125 -14.90625 L 18.390625 -24.71875 L 25.171875 -24.71875 Z M 15.71875 -8.859375 "/></g></g></g><g fill="#ffffff" fill-opacity="1"><g transform="translate(166.375982, 45.398712)"><g><path d="M 7.734375 -19.171875 L 0.140625 -19.171875 L 0.140625 -24.71875 L 22.28125 -24.71875 L 22.28125 -19.171875 L 14.71875 -19.171875 L 14.71875 0 L 7.734375 0 Z M 7.734375 -19.171875 "/></g></g></g><g fill="#ffffff" fill-opacity="1"><g transform="translate(191.977419, 45.398712)"><g><path d="M 22.3125 -5.40625 L 22.3125 0 L 2.46875 0 L 2.46875 -24.71875 L 21.859375 -24.71875 L 21.859375 -19.3125 L 9.390625 -19.3125 L 9.390625 -15.15625 L 20.375 -15.15625 L 20.375 -9.921875 L 9.390625 -9.921875 L 9.390625 -5.40625 Z M 22.3125 -5.40625 "/></g></g></g></svg>