<svg xmlns="http://www.w3.org/2000/svg" xmlns:xlink="http://www.w3.org/1999/xlink" width="500" zoomAndPan="magnify" viewBox="0 0 375 374.999991" height="500" preserveAspectRatio="xMidYMid meet" version="1.0"><defs><g/></defs><rect x="-37.5" width="450" fill="#ffffff" y="-37.499999" height="449.999989" fill-opacity="1"/><rect x="-37.5" width="450" fill="#ffffff" y="-37.499999" height="449.999989" fill-opacity="1"/><rect x="-37.5" width="450" fill="#000000" y="-37.499999" height="449.999989" fill-opacity="1"/><g fill="#f94d1f" fill-opacity="1"><g transform="translate(45.55581, 171.364859)"><g><path d="M 4.21875 -95.515625 L 29.46875 -95.515625 C 37.101562 -95.515625 42.550781 -93.046875 45.8125 -88.109375 C 49.070312 -83.179688 50.703125 -75.972656 50.703125 -66.484375 C 50.703125 -57.003906 49.253906 -49.851562 46.359375 -45.03125 C 43.472656 -40.207031 38.285156 -37.796875 30.796875 -37.796875 L 23.015625 -37.796875 L 23.015625 0 L 4.21875 0 Z M 24.125 -55.03125 C 26.425781 -55.03125 28.113281 -55.457031 29.1875 -56.3125 C 30.257812 -57.164062 30.960938 -58.390625 31.296875 -59.984375 C 31.628906 -61.578125 31.796875 -63.859375 31.796875 -66.828125 C 31.796875 -70.828125 31.347656 -73.71875 30.453125 -75.5 C 29.566406 -77.28125 27.789062 -78.171875 25.125 -78.171875 L 23.015625 -78.171875 L 23.015625 -55.03125 Z M 24.125 -55.03125 "/></g></g></g><g fill="#f94d1f" fill-opacity="1"><g transform="translate(98.037555, 171.364859)"><g><path d="M 26.34375 0.890625 C 18.488281 0.890625 12.648438 -1.332031 8.828125 -5.78125 C 5.015625 -10.226562 3.109375 -16.828125 3.109375 -25.578125 L 3.109375 -95.515625 L 21.6875 -95.515625 L 21.6875 -26.34375 C 21.6875 -23.3125 21.976562 -20.941406 22.5625 -19.234375 C 23.15625 -17.523438 24.414062 -16.671875 26.34375 -16.671875 C 28.28125 -16.671875 29.539062 -17.503906 30.125 -19.171875 C 30.71875 -20.847656 31.015625 -23.238281 31.015625 -26.34375 L 31.015625 -95.515625 L 49.59375 -95.515625 L 49.59375 -25.578125 C 49.59375 -16.828125 47.679688 -10.226562 43.859375 -5.78125 C 40.046875 -1.332031 34.207031 0.890625 26.34375 0.890625 Z M 26.34375 0.890625 "/></g></g></g><g fill="#f94d1f" fill-opacity="1"><g transform="translate(150.741682, 171.364859)"><g><path d="M 4.21875 0 L 4.21875 -95.515625 L 42.46875 -95.515625 L 42.46875 -76.9375 L 23.453125 -76.9375 L 23.453125 -61.703125 L 41.46875 -61.703125 L 41.46875 -43.359375 L 23.453125 -43.359375 L 23.453125 0 Z M 4.21875 0 "/></g></g></g><g fill="#f94d1f" fill-opacity="1"><g transform="translate(195.106537, 171.364859)"><g><path d="M 4.21875 0 L 4.21875 -95.515625 L 42.46875 -95.515625 L 42.46875 -76.9375 L 23.453125 -76.9375 L 23.453125 -61.703125 L 41.46875 -61.703125 L 41.46875 -43.359375 L 23.453125 -43.359375 L 23.453125 0 Z M 4.21875 0 "/></g></g></g><g fill="#f94d1f" fill-opacity="1"><g transform="translate(239.471392, 171.364859)"><g><path d="M 4.21875 0 L 4.21875 -95.515625 L 23.34375 -95.515625 L 23.34375 -16.234375 L 43.03125 -16.234375 L 43.03125 0 Z M 4.21875 0 "/></g></g></g><g fill="#f94d1f" fill-opacity="1"><g transform="translate(283.613866, 171.364859)"><g><path d="M 4.21875 0 L 4.21875 -95.515625 L 42.46875 -95.515625 L 42.46875 -77.046875 L 23.6875 -77.046875 L 23.6875 -58.484375 L 41.6875 -58.484375 L 41.6875 -40.46875 L 23.6875 -40.46875 L 23.6875 -18.5625 L 43.703125 -18.5625 L 43.703125 0 Z M 4.21875 0 "/></g></g></g><path stroke-linecap="butt" transform="matrix(1.158041, 0, 0, 1.158041, 8.363382, 184.281317)" fill="none" stroke-linejoin="miter" d="M 63.371337 -1.271736 L 87.738994 -1.271736 C 95.116079 -1.271736 100.381571 1.106337 103.528723 5.862482 C 106.69274 10.618628 108.274749 17.587562 108.274749 26.765911 C 108.274749 35.930767 106.874891 42.835611 104.078547 47.487189 C 101.282203 52.138767 96.273071 54.46287 89.05115 54.46287 L 81.522273 54.46287 L 81.522273 91.000862 L 63.371337 91.000862 Z M 82.598309 37.809614 C 84.817844 37.809614 86.443703 37.398089 87.475888 36.578413 C 88.524939 35.755363 89.206316 34.57476 89.523392 33.036602 C 89.837095 31.498444 89.995633 29.295776 89.995633 26.425222 C 89.995633 22.562962 89.567243 19.773365 88.710462 18.059803 C 87.853681 16.346242 86.14012 15.489461 83.569777 15.489461 L 81.522273 15.489461 L 81.522273 37.809614 Z M 136.079649 91.864389 C 128.631727 91.864389 122.97495 89.590884 119.112689 85.047247 C 115.247056 80.500237 113.31424 74.108112 113.31424 65.874246 L 113.31424 21.915317 C 113.31424 13.978288 115.247056 7.987569 119.112689 3.949904 C 122.97495 -0.107998 128.631727 -2.135263 136.079649 -2.135263 C 143.530943 -2.135263 149.187721 -0.107998 153.049981 3.949904 C 156.93248 7.987569 158.872043 13.978288 158.872043 21.915317 L 158.872043 65.874246 C 158.872043 74.178949 156.93248 80.587939 153.049981 85.097845 C 149.187721 89.611123 143.530943 91.864389 136.079649 91.864389 Z M 136.079649 74.89743 C 137.742613 74.89743 138.85238 74.178949 139.412324 72.745359 C 139.989133 71.311769 140.279224 69.301369 140.279224 66.714161 L 140.279224 21.601614 C 140.279224 19.591215 140.005999 17.965355 139.466294 16.720661 C 138.940082 15.462475 137.847181 14.835069 136.18759 14.835069 C 133.107901 14.835069 131.569743 17.159171 131.569743 21.810749 L 131.569743 66.818729 C 131.569743 69.476773 131.893566 71.487172 132.541211 72.849926 C 133.188857 74.21268 134.366087 74.89743 136.079649 74.89743 Z M 188.184742 91.864389 C 179.809203 91.864389 173.757767 89.793273 170.033806 85.651042 C 166.309845 81.488571 164.447865 74.782743 164.447865 65.533558 L 164.447865 56.510373 L 182.595428 56.510373 L 182.595428 67.999332 C 182.595428 72.59694 184.066122 74.89743 187.004138 74.89743 C 188.646864 74.89743 189.790363 74.415069 190.438008 73.453721 C 191.085653 72.475506 191.409476 70.839527 191.409476 68.549156 C 191.409476 65.540304 191.051922 63.057663 190.33344 61.101235 C 189.618332 59.124567 188.700834 57.471722 187.580948 56.1427 C 186.477927 54.813678 184.494513 52.749308 181.627333 49.952964 L 173.680184 42.005816 C 167.52418 35.991484 164.447865 29.329507 164.447865 22.019885 C 164.447865 14.150319 166.255875 8.162972 169.875268 4.054472 C 173.494661 -0.0708938 178.777018 -2.135263 185.718967 -2.135263 C 194.02367 -2.135263 200.00427 0.0674055 203.657394 4.472743 C 207.313892 8.881454 209.138768 15.769432 209.138768 25.140051 L 190.33344 25.140051 L 190.228873 18.795151 C 190.228873 17.587562 189.888184 16.626213 189.206807 15.907732 C 188.52543 15.192623 187.580948 14.835069 186.373359 14.835069 C 184.939769 14.835069 183.863733 15.226355 183.148625 16.015673 C 182.430143 16.801617 182.072589 17.877653 182.072589 19.240407 C 182.072589 22.249259 183.786151 25.359306 187.213274 28.577294 L 197.966885 38.885649 C 200.466392 41.331185 202.537508 43.648541 204.183606 45.834344 C 205.843198 48.020148 207.17222 50.60061 208.170673 53.572357 C 209.165753 56.544105 209.66498 60.06905 209.66498 64.143819 C 209.66498 73.234466 208.002015 80.132563 204.67946 84.834739 C 201.360277 89.523421 195.858665 91.864389 188.184742 91.864389 Z M 223.751266 91.000862 L 223.751266 16.433943 L 212.788519 16.433943 L 212.788519 -1.271736 L 253.178653 -1.271736 L 253.178653 16.433943 L 242.215906 16.433943 L 242.215906 91.000862 Z M 223.751266 91.000862 " stroke="#f94d1f" stroke-width="3.088883" stroke-opacity="1" stroke-miterlimit="4"/></svg>