<svg xmlns="http://www.w3.org/2000/svg" xmlns:xlink="http://www.w3.org/1999/xlink" width="900" zoomAndPan="magnify" viewBox="0 0 675 225" height="300" preserveAspectRatio="xMidYMid meet" version="1.0"><defs><g/></defs><path stroke-linecap="butt" transform="matrix(1.5, 0, 0, 1.5, 22.499999, 37.31319)" fill="none" stroke-linejoin="miter" d="M 34.763023 25.002145 C 37.986981 25.002145 40.859377 25.746937 43.380211 27.233916 C 45.903648 28.7235 47.864586 30.765167 49.268232 33.361521 C 50.682294 35.955271 51.388024 38.866729 51.388024 42.088084 L 51.388024 43.06725 C 51.388024 46.288605 50.682294 49.21048 49.268232 51.830272 C 47.864586 54.452668 45.903648 56.504751 43.380211 57.994334 C 40.859377 59.483918 37.986981 60.226105 34.763023 60.226105 L 22.289064 60.226105 L 22.289064 76.999543 L 5.591147 76.999543 L 5.591147 25.002145 Z M 22.289064 48.049021 L 29.171877 48.049021 C 30.932294 48.049021 32.25521 47.598501 33.140627 46.702667 C 34.026044 45.791209 34.468752 44.55423 34.468752 42.99173 L 34.468752 42.384959 C 34.468752 40.772979 34.026044 39.530792 33.140627 38.655792 C 32.25521 37.770375 30.932294 37.327667 29.171877 37.327667 L 22.289064 37.327667 Z M 86.546879 76.999543 L 85.549483 70.94746 C 83.986983 73.111523 81.932296 74.817252 79.388025 76.059439 C 76.851566 77.288606 74.171879 77.903189 71.341149 77.903189 C 66.703128 77.903189 63.22917 76.619335 60.91667 74.046418 C 58.60417 71.476106 57.44792 67.772981 57.44792 62.939647 L 57.44792 37.088084 L 72.486983 37.088084 L 72.486983 61.132355 C 72.486983 62.840689 72.921879 64.213085 73.796879 65.246939 C 74.682295 66.278189 75.929691 66.796418 77.541671 66.796418 C 79.411462 66.796418 80.924483 66.192251 82.080733 64.986522 C 83.236983 63.770376 83.815108 62.280793 83.815108 60.52298 L 83.815108 37.088084 L 98.854171 37.088084 L 98.854171 76.999543 Z M 122.731777 21.293812 C 123.851568 21.293812 125.242193 21.434437 126.901048 21.718291 C 128.562506 21.989125 129.898444 22.301625 130.906256 22.658395 L 130.906256 31.496937 L 127.419277 31.496937 C 125.807298 31.496937 124.700527 31.804229 124.09636 32.418812 C 123.494797 33.022979 123.192714 34.049021 123.192714 35.502146 L 123.192714 37.088084 L 130.906256 37.088084 L 130.906256 47.291209 L 123.192714 47.291209 L 123.192714 76.999543 L 108.153651 76.999543 L 108.153651 47.291209 L 102.562505 47.291209 L 102.562505 37.088084 L 108.153651 37.088084 L 108.153651 35.426625 C 108.153651 30.286 109.408859 26.645375 111.919276 24.50475 C 114.44011 22.364125 118.044276 21.293812 122.731777 21.293812 Z M 150.619799 21.293812 C 151.73959 21.293812 153.130215 21.434437 154.78907 21.718291 C 156.450528 21.989125 157.786466 22.301625 158.794278 22.658395 L 158.794278 31.496937 L 155.307299 31.496937 C 153.69532 31.496937 152.588549 31.804229 151.984382 32.418812 C 151.382819 33.022979 151.080736 34.049021 151.080736 35.502146 L 151.080736 37.088084 L 158.794278 37.088084 L 158.794278 47.291209 L 151.080736 47.291209 L 151.080736 76.999543 L 136.041673 76.999543 L 136.041673 47.291209 L 130.450527 47.291209 L 130.450527 37.088084 L 136.041673 37.088084 L 136.041673 35.426625 C 136.041673 30.286 137.296881 26.645375 139.807298 24.50475 C 142.328132 22.364125 145.932298 21.293812 150.619799 21.293812 Z M 162.786466 76.999543 L 162.786466 22.197458 L 177.843758 22.197458 L 177.843758 76.999543 Z M 206.554697 36.184438 C 213.861989 36.184438 219.440114 37.900584 223.291677 41.332875 C 227.153656 44.752146 229.085948 49.99173 229.085948 57.05423 L 229.085948 59.619334 L 199.156259 59.619334 C 199.156259 62.483918 199.796884 64.650585 201.07553 66.114126 C 202.354176 67.577668 204.385426 68.309439 207.164072 68.309439 C 209.684905 68.309439 211.536468 67.780793 212.718759 66.720897 C 213.898447 65.663606 214.489593 64.254751 214.489593 62.496939 L 229.085948 62.496939 C 229.085948 67.330272 227.247406 71.106314 223.567718 73.825064 C 219.890635 76.543814 214.520843 77.903189 207.458343 77.903189 C 200.054696 77.903189 194.309905 76.181835 190.223967 72.736522 C 186.140633 69.280793 184.098967 64.051626 184.098967 57.05423 C 184.098967 50.200063 186.091154 45.009959 190.078134 41.478709 C 194.062509 37.950063 199.554696 36.184438 206.554697 36.184438 Z M 207.164072 45.778188 C 202.427092 45.778188 199.783863 48.02298 199.229176 52.515167 L 213.880218 52.515167 C 213.880218 50.447459 213.291676 48.812042 212.109384 47.606313 C 210.929697 46.387563 209.281259 45.778188 207.164072 45.778188 Z M 261.119803 36.184438 C 266.507824 36.184438 270.664074 37.950063 273.593762 41.478709 C 276.520845 45.009959 277.984387 50.226105 277.984387 57.127147 C 277.984387 63.97871 276.520845 69.158397 273.593762 72.663606 C 270.664074 76.158398 266.507824 77.903189 261.119803 77.903189 C 256.481782 77.903189 252.755219 76.390168 249.937511 73.364127 L 249.937511 91.890169 L 234.898448 91.890169 L 234.898448 37.088084 L 247.132823 37.088084 L 248.42449 42.770375 C 251.351574 38.37975 255.583345 36.184438 261.119803 36.184438 Z M 256.432303 47.291209 C 254.218761 47.291209 252.557303 48.072459 251.450532 49.634959 C 250.343761 51.197459 249.789074 53.239126 249.789074 55.762563 L 249.789074 58.252147 C 249.789074 60.775584 250.343761 62.827668 251.450532 64.41621 C 252.557303 66.002147 254.218761 66.796418 256.432303 66.796418 C 260.763032 66.796418 262.927095 64.200064 262.927095 59.009959 L 262.927095 55.004751 C 262.927095 49.864126 260.763032 47.291209 256.432303 47.291209 Z M 304.35418 36.184438 C 311.351576 36.184438 316.856785 37.960479 320.867201 41.517771 C 324.877618 45.072459 326.882827 50.249542 326.882827 57.05423 C 326.882827 63.856314 324.877618 69.036001 320.867201 72.590689 C 316.856785 76.132356 311.351576 77.903189 304.35418 77.903189 C 297.35418 77.903189 291.861992 76.145377 287.875013 72.627147 C 283.890637 69.095897 281.895846 63.905793 281.895846 57.05423 C 281.895846 50.200063 283.890637 45.009959 287.875013 41.478709 C 291.861992 37.950063 297.35418 36.184438 304.35418 36.184438 Z M 304.35418 46.387563 C 299.419284 46.387563 296.953138 49.236522 296.953138 54.931834 L 296.953138 59.231314 C 296.953138 64.877147 299.419284 67.700064 304.35418 67.700064 C 309.335951 67.700064 311.825534 64.877147 311.825534 59.231314 L 311.825534 54.931834 C 311.825534 49.236522 309.335951 46.387563 304.35418 46.387563 Z M 351.591161 36.184438 C 356.929703 36.184438 361.450537 37.228709 365.153662 39.319854 C 368.856787 41.411 370.708349 44.64798 370.708349 49.025584 L 356.72137 49.025584 C 356.72137 47.575063 356.070328 46.549021 354.76564 45.944855 C 353.854182 45.439646 352.723974 45.189646 351.369807 45.189646 C 347.742203 45.189646 345.927098 46.043813 345.927098 47.752146 C 345.927098 48.713084 346.554703 49.395376 347.809911 49.801626 C 349.062515 50.194855 351.130224 50.619334 354.007828 51.075063 C 357.539078 51.580272 360.484391 52.176626 362.84637 52.864126 C 365.22137 53.541209 367.289078 54.746938 369.046891 56.481313 C 370.807308 58.215689 371.684912 60.645376 371.684912 63.770376 C 371.684912 68.861522 369.78387 72.491731 365.984391 74.655793 C 362.182307 76.82246 357.205745 77.903189 351.057307 77.903189 C 347.526057 77.903189 344.197932 77.411002 341.072932 76.429231 C 337.960952 75.444856 335.42189 73.924023 333.45314 71.869335 C 331.484389 69.804231 330.500014 67.176626 330.500014 63.99173 L 344.486994 63.99173 L 344.486994 64.30423 C 344.536473 66.015168 345.250015 67.213085 346.627619 67.903189 C 348.018244 68.580272 349.494807 68.918814 351.057307 68.918814 C 355.239599 68.918814 357.330745 67.934439 357.330745 65.965689 C 357.330745 64.957876 356.67189 64.226105 355.356786 63.770376 C 354.052099 63.314647 351.911474 62.83548 348.934911 62.330272 C 345.367203 61.72871 342.432307 61.075064 340.132827 60.374543 C 337.843765 59.674022 335.838556 58.481314 334.117202 56.793813 C 332.406264 55.098501 331.552098 52.736522 331.552098 49.71048 C 331.552098 44.825063 333.40366 41.351105 337.106786 39.283396 C 340.820327 37.218292 345.648453 36.184438 351.591161 36.184438 Z M 403.895851 37.088084 L 403.895851 47.291209 L 395.4271 47.291209 L 395.4271 62.496939 C 395.4271 64.30423 395.729184 65.627147 396.330746 66.463085 C 396.934913 67.288606 398.041684 67.700064 399.653663 67.700064 L 403.895851 67.700064 L 403.895851 76.538606 C 402.679705 76.944856 401.111997 77.270377 399.192726 77.517773 C 397.283871 77.775585 395.625017 77.903189 394.210955 77.903189 C 389.781267 77.903189 386.367204 77.098502 383.968767 75.486523 C 381.58335 73.874543 380.388037 71.132356 380.388037 67.257356 L 380.388037 47.291209 L 374.796891 47.291209 L 374.796891 37.088084 L 380.979183 37.088084 L 384.244808 25.002145 L 395.4271 25.002145 L 395.4271 37.088084 Z M 403.895851 37.088084 " stroke="#6f001a" stroke-width="11.33835" stroke-opacity="1" stroke-miterlimit="4"/><g fill="#de0f3f" fill-opacity="1"><g transform="translate(22.499999, 152.813185)"><g><path d="M 52.15625 -78 C 56.988281 -78 61.296875 -76.882812 65.078125 -74.65625 C 68.859375 -72.425781 71.804688 -69.363281 73.921875 -65.46875 C 76.035156 -61.582031 77.09375 -57.21875 77.09375 -52.375 L 77.09375 -50.90625 C 77.09375 -46.070312 76.035156 -41.6875 73.921875 -37.75 C 71.804688 -33.820312 68.859375 -30.742188 65.078125 -28.515625 C 61.296875 -26.285156 56.988281 -25.171875 52.15625 -25.171875 L 33.453125 -25.171875 L 33.453125 0 L 8.390625 0 L 8.390625 -78 Z M 33.453125 -43.421875 L 43.765625 -43.421875 C 46.410156 -43.421875 48.394531 -44.097656 49.71875 -45.453125 C 51.039062 -46.816406 51.703125 -48.671875 51.703125 -51.015625 L 51.703125 -51.921875 C 51.703125 -54.335938 51.039062 -56.207031 49.71875 -57.53125 C 48.394531 -58.851562 46.410156 -59.515625 43.765625 -59.515625 L 33.453125 -59.515625 Z M 33.453125 -43.421875 "/></g></g></g><g fill="#de0f3f" fill-opacity="1"><g transform="translate(102.083538, 152.813185)"><g><path d="M 50.21875 0 L 48.75 -9.0625 C 46.40625 -5.8125 43.320312 -3.257812 39.5 -1.40625 C 35.6875 0.4375 31.664062 1.359375 27.4375 1.359375 C 20.476562 1.359375 15.257812 -0.566406 11.78125 -4.421875 C 8.3125 -8.273438 6.578125 -13.832031 6.578125 -21.09375 L 6.578125 -59.859375 L 29.140625 -59.859375 L 29.140625 -23.8125 C 29.140625 -21.238281 29.800781 -19.175781 31.125 -17.625 C 32.445312 -16.082031 34.316406 -15.3125 36.734375 -15.3125 C 39.523438 -15.3125 41.789062 -16.21875 43.53125 -18.03125 C 45.269531 -19.84375 46.140625 -22.070312 46.140625 -24.71875 L 46.140625 -59.859375 L 68.703125 -59.859375 L 68.703125 0 Z M 50.21875 0 "/></g></g></g><g fill="#de0f3f" fill-opacity="1"><g transform="translate(175.431878, 152.813185)"><g><path d="M 31.171875 -83.5625 C 32.835938 -83.5625 34.914062 -83.351562 37.40625 -82.9375 C 39.90625 -82.519531 41.910156 -82.046875 43.421875 -81.515625 L 43.421875 -68.25 L 38.203125 -68.25 C 35.785156 -68.25 34.125 -67.796875 33.21875 -66.890625 C 32.3125 -65.984375 31.859375 -64.4375 31.859375 -62.25 L 31.859375 -59.859375 L 43.421875 -59.859375 L 43.421875 -44.5625 L 31.859375 -44.5625 L 31.859375 0 L 9.296875 0 L 9.296875 -44.5625 L 0.90625 -44.5625 L 0.90625 -59.859375 L 9.296875 -59.859375 L 9.296875 -62.359375 C 9.296875 -70.066406 11.1875 -75.523438 14.96875 -78.734375 C 18.75 -81.953125 24.148438 -83.5625 31.171875 -83.5625 Z M 31.171875 -83.5625 "/></g></g></g><g fill="#de0f3f" fill-opacity="1"><g transform="translate(217.264083, 152.813185)"><g><path d="M 31.171875 -83.5625 C 32.835938 -83.5625 34.914062 -83.351562 37.40625 -82.9375 C 39.90625 -82.519531 41.910156 -82.046875 43.421875 -81.515625 L 43.421875 -68.25 L 38.203125 -68.25 C 35.785156 -68.25 34.125 -67.796875 33.21875 -66.890625 C 32.3125 -65.984375 31.859375 -64.4375 31.859375 -62.25 L 31.859375 -59.859375 L 43.421875 -59.859375 L 43.421875 -44.5625 L 31.859375 -44.5625 L 31.859375 0 L 9.296875 0 L 9.296875 -44.5625 L 0.90625 -44.5625 L 0.90625 -59.859375 L 9.296875 -59.859375 L 9.296875 -62.359375 C 9.296875 -70.066406 11.1875 -75.523438 14.96875 -78.734375 C 18.75 -81.953125 24.148438 -83.5625 31.171875 -83.5625 Z M 31.171875 -83.5625 "/></g></g></g><g fill="#de0f3f" fill-opacity="1"><g transform="translate(259.096288, 152.813185)"><g><path d="M 7.59375 0 L 7.59375 -82.203125 L 30.15625 -82.203125 L 30.15625 0 Z M 7.59375 0 "/></g></g></g><g fill="#de0f3f" fill-opacity="1"><g transform="translate(294.57993, 152.813185)"><g><path d="M 37.75 -61.21875 C 48.707031 -61.21875 57.078125 -58.644531 62.859375 -53.5 C 68.648438 -48.363281 71.546875 -40.507812 71.546875 -29.9375 L 71.546875 -26.078125 L 26.640625 -26.078125 C 26.640625 -21.765625 27.601562 -18.507812 29.53125 -16.3125 C 31.457031 -14.125 34.5 -13.03125 38.65625 -13.03125 C 42.4375 -13.03125 45.210938 -13.820312 46.984375 -15.40625 C 48.765625 -17 49.65625 -19.117188 49.65625 -21.765625 L 71.546875 -21.765625 C 71.546875 -14.515625 68.785156 -8.847656 63.265625 -4.765625 C 57.742188 -0.679688 49.691406 1.359375 39.109375 1.359375 C 28.003906 1.359375 19.390625 -1.226562 13.265625 -6.40625 C 7.140625 -11.582031 4.078125 -19.425781 4.078125 -29.9375 C 4.078125 -40.207031 7.0625 -47.988281 13.03125 -53.28125 C 19.007812 -58.570312 27.25 -61.21875 37.75 -61.21875 Z M 38.65625 -46.828125 C 31.550781 -46.828125 27.582031 -43.460938 26.75 -36.734375 L 48.75 -36.734375 C 48.75 -39.828125 47.859375 -42.28125 46.078125 -44.09375 C 44.304688 -45.914062 41.832031 -46.828125 38.65625 -46.828125 Z M 38.65625 -46.828125 "/></g></g></g><g fill="#de0f3f" fill-opacity="1"><g transform="translate(367.928269, 152.813185)"><g><path d="M 46.25 -61.21875 C 54.34375 -61.21875 60.582031 -58.570312 64.96875 -53.28125 C 69.351562 -47.988281 71.546875 -40.164062 71.546875 -29.8125 C 71.546875 -19.539062 69.351562 -11.773438 64.96875 -6.515625 C 60.582031 -1.265625 54.34375 1.359375 46.25 1.359375 C 39.300781 1.359375 33.710938 -0.90625 29.484375 -5.4375 L 29.484375 22.328125 L 6.921875 22.328125 L 6.921875 -59.859375 L 25.28125 -59.859375 L 27.203125 -51.359375 C 31.585938 -57.929688 37.9375 -61.21875 46.25 -61.21875 Z M 39.234375 -44.5625 C 35.898438 -44.5625 33.398438 -43.390625 31.734375 -41.046875 C 30.078125 -38.703125 29.25 -35.640625 29.25 -31.859375 L 29.25 -28.109375 C 29.25 -24.335938 30.078125 -21.257812 31.734375 -18.875 C 33.398438 -16.5 35.898438 -15.3125 39.234375 -15.3125 C 45.734375 -15.3125 48.984375 -19.203125 48.984375 -26.984375 L 48.984375 -32.984375 C 48.984375 -40.703125 45.734375 -44.5625 39.234375 -44.5625 Z M 39.234375 -44.5625 "/></g></g></g><g fill="#de0f3f" fill-opacity="1"><g transform="translate(441.276609, 152.813185)"><g><path d="M 37.75 -61.21875 C 48.257812 -61.21875 56.519531 -58.550781 62.53125 -53.21875 C 68.539062 -47.894531 71.546875 -40.132812 71.546875 -29.9375 C 71.546875 -19.726562 68.539062 -11.957031 62.53125 -6.625 C 56.519531 -1.300781 48.257812 1.359375 37.75 1.359375 C 27.25 1.359375 19.007812 -1.285156 13.03125 -6.578125 C 7.0625 -11.867188 4.078125 -19.65625 4.078125 -29.9375 C 4.078125 -40.207031 7.0625 -47.988281 13.03125 -53.28125 C 19.007812 -58.570312 27.25 -61.21875 37.75 -61.21875 Z M 37.75 -45.921875 C 30.34375 -45.921875 26.640625 -41.648438 26.640625 -33.109375 L 26.640625 -26.640625 C 26.640625 -18.171875 30.34375 -13.9375 37.75 -13.9375 C 45.238281 -13.9375 48.984375 -18.171875 48.984375 -26.640625 L 48.984375 -33.109375 C 48.984375 -41.648438 45.238281 -45.921875 37.75 -45.921875 Z M 37.75 -45.921875 "/></g></g></g><g fill="#de0f3f" fill-opacity="1"><g transform="translate(514.624948, 152.813185)"><g><path d="M 35.265625 -61.21875 C 43.273438 -61.21875 50.054688 -59.648438 55.609375 -56.515625 C 61.160156 -53.378906 63.9375 -48.523438 63.9375 -41.953125 L 42.96875 -41.953125 C 42.96875 -44.140625 41.984375 -45.6875 40.015625 -46.59375 C 38.660156 -47.351562 36.960938 -47.734375 34.921875 -47.734375 C 29.472656 -47.734375 26.75 -46.445312 26.75 -43.875 C 26.75 -42.4375 27.691406 -41.414062 29.578125 -40.8125 C 31.472656 -40.207031 34.578125 -39.566406 38.890625 -38.890625 C 44.179688 -38.128906 48.601562 -37.238281 52.15625 -36.21875 C 55.707031 -35.195312 58.804688 -33.382812 61.453125 -30.78125 C 64.097656 -28.175781 65.421875 -24.53125 65.421875 -19.84375 C 65.421875 -12.207031 62.566406 -6.765625 56.859375 -3.515625 C 51.148438 -0.265625 43.6875 1.359375 34.46875 1.359375 C 29.175781 1.359375 24.1875 0.625 19.5 -0.84375 C 14.8125 -2.320312 10.992188 -4.609375 8.046875 -7.703125 C 5.097656 -10.804688 3.625 -14.738281 3.625 -19.5 L 24.609375 -19.5 L 24.609375 -19.046875 C 24.679688 -16.472656 25.753906 -14.675781 27.828125 -13.65625 C 29.910156 -12.632812 32.125 -12.125 34.46875 -12.125 C 40.738281 -12.125 43.875 -13.597656 43.875 -16.546875 C 43.875 -18.054688 42.890625 -19.148438 40.921875 -19.828125 C 38.960938 -20.515625 35.753906 -21.238281 31.296875 -22 C 25.921875 -22.90625 21.515625 -23.882812 18.078125 -24.9375 C 14.640625 -26 11.632812 -27.796875 9.0625 -30.328125 C 6.5 -32.859375 5.21875 -36.390625 5.21875 -40.921875 C 5.21875 -48.253906 7.992188 -53.46875 13.546875 -56.5625 C 19.097656 -59.664062 26.335938 -61.21875 35.265625 -61.21875 Z M 35.265625 -61.21875 "/></g></g></g><g fill="#de0f3f" fill-opacity="1"><g transform="translate(581.624701, 152.813185)"><g><path d="M 46.703125 -59.859375 L 46.703125 -44.5625 L 34.015625 -44.5625 L 34.015625 -21.765625 C 34.015625 -19.046875 34.46875 -17.0625 35.375 -15.8125 C 36.28125 -14.5625 37.941406 -13.9375 40.359375 -13.9375 L 46.703125 -13.9375 L 46.703125 -0.6875 C 44.890625 -0.0703125 42.546875 0.421875 39.671875 0.796875 C 36.804688 1.171875 34.316406 1.359375 32.203125 1.359375 C 25.546875 1.359375 20.421875 0.148438 16.828125 -2.265625 C 13.242188 -4.679688 11.453125 -8.800781 11.453125 -14.625 L 11.453125 -44.5625 L 3.0625 -44.5625 L 3.0625 -59.859375 L 12.359375 -59.859375 L 17.234375 -78 L 34.015625 -78 L 34.015625 -59.859375 Z M 46.703125 -59.859375 "/></g></g></g></svg>