<svg xmlns="http://www.w3.org/2000/svg" xmlns:xlink="http://www.w3.org/1999/xlink" width="300" zoomAndPan="magnify" viewBox="0 0 224.87999 67.499998" height="90" preserveAspectRatio="xMidYMid meet" version="1.0"><defs><g/><clipPath id="e14a34ea36"><path d="M 0.765625 0 L 223.992188 0 L 223.992188 67.003906 L 0.765625 67.003906 Z M 0.765625 0 " clip-rule="nonzero"/></clipPath><clipPath id="80ea40df26"><path d="M 0.765625 0 L 6 0 L 6 67.003906 L 0.765625 67.003906 Z M 0.765625 0 " clip-rule="nonzero"/></clipPath><clipPath id="25e4b591fe"><path d="M 0.765625 62 L 223.992188 62 L 223.992188 67.003906 L 0.765625 67.003906 Z M 0.765625 62 " clip-rule="nonzero"/></clipPath><clipPath id="a777219bbf"><path d="M 219 0 L 223.992188 0 L 223.992188 67.003906 L 219 67.003906 Z M 219 0 " clip-rule="nonzero"/></clipPath><clipPath id="dcef05a054"><path d="M 0.765625 0 L 223.992188 0 L 223.992188 5 L 0.765625 5 Z M 0.765625 0 " clip-rule="nonzero"/></clipPath></defs><g clip-path="url(#e14a34ea36)"><path fill="#ffffff" d="M 0.765625 0 L 224.113281 0 L 224.113281 74.449219 L 0.765625 74.449219 Z M 0.765625 0 " fill-opacity="1" fill-rule="nonzero"/><path fill="#ffffff" d="M 0.765625 0 L 224.113281 0 L 224.113281 67.003906 L 0.765625 67.003906 Z M 0.765625 0 " fill-opacity="1" fill-rule="nonzero"/><path fill="#a8dadc" d="M 0.765625 0 L 224.113281 0 L 224.113281 67.003906 L 0.765625 67.003906 Z M 0.765625 0 " fill-opacity="1" fill-rule="nonzero"/></g><g fill="#e63946" fill-opacity="1"><g transform="translate(6.177602, 51.218271)"><g><path d="M 1.78125 -40.3125 L 12.4375 -40.3125 C 15.65625 -40.3125 17.953125 -39.269531 19.328125 -37.1875 C 20.703125 -35.101562 21.390625 -32.0625 21.390625 -28.0625 C 21.390625 -24.050781 20.78125 -21.03125 19.5625 -19 C 18.34375 -16.96875 16.15625 -15.953125 13 -15.953125 L 9.71875 -15.953125 L 9.71875 0 L 1.78125 0 Z M 10.1875 -23.21875 C 11.15625 -23.21875 11.863281 -23.398438 12.3125 -23.765625 C 12.769531 -24.128906 13.066406 -24.644531 13.203125 -25.3125 C 13.347656 -25.988281 13.421875 -26.953125 13.421875 -28.203125 C 13.421875 -29.890625 13.234375 -31.109375 12.859375 -31.859375 C 12.484375 -32.609375 11.734375 -32.984375 10.609375 -32.984375 L 9.71875 -32.984375 L 9.71875 -23.21875 Z M 10.1875 -23.21875 "/></g></g></g><g fill="#e63946" fill-opacity="1"><g transform="translate(28.32113, 51.218271)"><g><path d="M 11.125 0.375 C 7.800781 0.375 5.332031 -0.5625 3.71875 -2.4375 C 2.113281 -4.3125 1.3125 -7.097656 1.3125 -10.796875 L 1.3125 -40.3125 L 9.15625 -40.3125 L 9.15625 -11.125 C 9.15625 -9.84375 9.28125 -8.835938 9.53125 -8.109375 C 9.78125 -7.390625 10.3125 -7.03125 11.125 -7.03125 C 11.9375 -7.03125 12.46875 -7.382812 12.71875 -8.09375 C 12.96875 -8.800781 13.09375 -9.8125 13.09375 -11.125 L 13.09375 -40.3125 L 20.921875 -40.3125 L 20.921875 -10.796875 C 20.921875 -7.097656 20.113281 -4.3125 18.5 -2.4375 C 16.894531 -0.5625 14.4375 0.375 11.125 0.375 Z M 11.125 0.375 "/></g></g></g><g fill="#e63946" fill-opacity="1"><g transform="translate(50.558492, 51.218271)"><g><path d="M 1.78125 0 L 1.78125 -40.3125 L 17.921875 -40.3125 L 17.921875 -32.46875 L 9.90625 -32.46875 L 9.90625 -26.046875 L 17.5 -26.046875 L 17.5 -18.296875 L 9.90625 -18.296875 L 9.90625 0 Z M 1.78125 0 "/></g></g></g><g fill="#e63946" fill-opacity="1"><g transform="translate(69.277282, 51.218271)"><g><path d="M 1.78125 0 L 1.78125 -40.3125 L 17.921875 -40.3125 L 17.921875 -32.46875 L 9.90625 -32.46875 L 9.90625 -26.046875 L 17.5 -26.046875 L 17.5 -18.296875 L 9.90625 -18.296875 L 9.90625 0 Z M 1.78125 0 "/></g></g></g><g fill="#e63946" fill-opacity="1"><g transform="translate(87.996072, 51.218271)"><g><path d="M 1.78125 0 L 1.78125 -40.3125 L 9.859375 -40.3125 L 9.859375 -6.84375 L 18.15625 -6.84375 L 18.15625 0 Z M 1.78125 0 "/></g></g></g><g fill="#e63946" fill-opacity="1"><g transform="translate(106.621028, 51.218271)"><g><path d="M 1.78125 0 L 1.78125 -40.3125 L 17.921875 -40.3125 L 17.921875 -32.515625 L 10 -32.515625 L 10 -24.6875 L 17.59375 -24.6875 L 17.59375 -17.078125 L 10 -17.078125 L 10 -7.84375 L 18.4375 -7.84375 L 18.4375 0 Z M 1.78125 0 "/></g></g></g><g fill="#1d3557" fill-opacity="1"><g transform="translate(128.400706, 51.230644)"><g><path d="M 1.78125 -40.375 L 12.453125 -40.375 C 15.679688 -40.375 17.984375 -39.332031 19.359375 -37.25 C 20.742188 -35.164062 21.4375 -32.117188 21.4375 -28.109375 C 21.4375 -24.097656 20.820312 -21.070312 19.59375 -19.03125 C 18.375 -17 16.179688 -15.984375 13.015625 -15.984375 L 9.734375 -15.984375 L 9.734375 0 L 1.78125 0 Z M 10.203125 -23.265625 C 11.171875 -23.265625 11.878906 -23.441406 12.328125 -23.796875 C 12.785156 -24.160156 13.082031 -24.675781 13.21875 -25.34375 C 13.363281 -26.019531 13.4375 -26.988281 13.4375 -28.25 C 13.4375 -29.9375 13.25 -31.15625 12.875 -31.90625 C 12.5 -32.664062 11.75 -33.046875 10.625 -33.046875 L 9.734375 -33.046875 L 9.734375 -23.265625 Z M 10.203125 -23.265625 "/></g></g></g><g fill="#1d3557" fill-opacity="1"><g transform="translate(150.582608, 51.230644)"><g><path d="M 11.421875 0.375 C 8.160156 0.375 5.679688 -0.617188 3.984375 -2.609375 C 2.296875 -4.597656 1.453125 -7.394531 1.453125 -11 L 1.453125 -30.21875 C 1.453125 -33.695312 2.296875 -36.320312 3.984375 -38.09375 C 5.679688 -39.863281 8.160156 -40.75 11.421875 -40.75 C 14.679688 -40.75 17.15625 -39.863281 18.84375 -38.09375 C 20.539062 -36.320312 21.390625 -33.695312 21.390625 -30.21875 L 21.390625 -11 C 21.390625 -7.363281 20.539062 -4.554688 18.84375 -2.578125 C 17.15625 -0.609375 14.679688 0.375 11.421875 0.375 Z M 11.421875 -7.046875 C 12.140625 -7.046875 12.625 -7.359375 12.875 -7.984375 C 13.125 -8.617188 13.25 -9.5 13.25 -10.625 L 13.25 -30.359375 C 13.25 -31.234375 13.128906 -31.945312 12.890625 -32.5 C 12.660156 -33.050781 12.1875 -33.328125 11.46875 -33.328125 C 10.125 -33.328125 9.453125 -32.304688 9.453125 -30.265625 L 9.453125 -10.578125 C 9.453125 -9.421875 9.59375 -8.539062 9.875 -7.9375 C 10.15625 -7.34375 10.671875 -7.046875 11.421875 -7.046875 Z M 11.421875 -7.046875 "/></g></g></g><g fill="#1d3557" fill-opacity="1"><g transform="translate(173.422445, 51.230644)"><g><path d="M 11.375 0.375 C 7.707031 0.375 5.054688 -0.53125 3.421875 -2.34375 C 1.796875 -4.164062 0.984375 -7.097656 0.984375 -11.140625 L 0.984375 -15.09375 L 8.9375 -15.09375 L 8.9375 -10.0625 C 8.9375 -8.050781 9.578125 -7.046875 10.859375 -7.046875 C 11.578125 -7.046875 12.078125 -7.253906 12.359375 -7.671875 C 12.640625 -8.097656 12.78125 -8.816406 12.78125 -9.828125 C 12.78125 -11.140625 12.625 -12.222656 12.3125 -13.078125 C 12 -13.941406 11.597656 -14.664062 11.109375 -15.25 C 10.628906 -15.832031 9.757812 -16.734375 8.5 -17.953125 L 5.03125 -21.4375 C 2.332031 -24.0625 0.984375 -26.972656 0.984375 -30.171875 C 0.984375 -33.617188 1.773438 -36.242188 3.359375 -38.046875 C 4.941406 -39.847656 7.253906 -40.75 10.296875 -40.75 C 13.929688 -40.75 16.546875 -39.785156 18.140625 -37.859375 C 19.734375 -35.929688 20.53125 -32.914062 20.53125 -28.8125 L 12.3125 -28.8125 L 12.265625 -31.578125 C 12.265625 -32.117188 12.113281 -32.546875 11.8125 -32.859375 C 11.519531 -33.171875 11.109375 -33.328125 10.578125 -33.328125 C 9.953125 -33.328125 9.476562 -33.148438 9.15625 -32.796875 C 8.84375 -32.453125 8.6875 -31.984375 8.6875 -31.390625 C 8.6875 -30.078125 9.441406 -28.71875 10.953125 -27.3125 L 15.65625 -22.796875 C 16.75 -21.734375 17.65625 -20.722656 18.375 -19.765625 C 19.09375 -18.804688 19.671875 -17.675781 20.109375 -16.375 C 20.554688 -15.070312 20.78125 -13.53125 20.78125 -11.75 C 20.78125 -7.769531 20.050781 -4.753906 18.59375 -2.703125 C 17.132812 -0.648438 14.726562 0.375 11.375 0.375 Z M 11.375 0.375 "/></g></g></g><g fill="#1d3557" fill-opacity="1"><g transform="translate(195.08739, 51.230644)"><g><path d="M 5.265625 0 L 5.265625 -32.625 L 0.46875 -32.625 L 0.46875 -40.375 L 18.140625 -40.375 L 18.140625 -32.625 L 13.34375 -32.625 L 13.34375 0 Z M 5.265625 0 "/></g></g></g><g clip-path="url(#80ea40df26)"><path stroke-linecap="butt" transform="matrix(0.000000000000000046, -0.744485, 0.744485, 0.000000000000000046, 0.756818, 66.749587)" fill="none" stroke-linejoin="miter" d="M -0.000555252 3.00257 L 89.99976 3.00257 " stroke="#151f28" stroke-width="6" stroke-opacity="1" stroke-miterlimit="4"/></g><g clip-path="url(#25e4b591fe)"><path stroke-linecap="butt" transform="matrix(0.744485, 0, 0, 0.744485, 0.756819, 62.53676)" fill="none" stroke-linejoin="miter" d="M 0.00133495 2.99908 L 299.998887 2.99908 " stroke="#151f28" stroke-width="6" stroke-opacity="1" stroke-miterlimit="4"/></g><g clip-path="url(#a777219bbf)"><path stroke-linecap="butt" transform="matrix(0.000000000000000046, -0.744485, 0.744485, 0.000000000000000046, 219.645865, 66.749587)" fill="none" stroke-linejoin="miter" d="M -0.000555252 2.999443 L 89.99976 2.999443 " stroke="#151f28" stroke-width="6" stroke-opacity="1" stroke-miterlimit="4"/></g><g clip-path="url(#dcef05a054)"><path stroke-linecap="butt" transform="matrix(0.744485, 0, 0, 0.744485, 0.767204, -0.254091)" fill="none" stroke-linejoin="miter" d="M -0.00212119 3.001482 L 300.000678 3.001482 " stroke="#151f28" stroke-width="6" stroke-opacity="1" stroke-miterlimit="4"/></g></svg>