<svg xmlns="http://www.w3.org/2000/svg" xmlns:xlink="http://www.w3.org/1999/xlink" width="200" zoomAndPan="magnify" viewBox="0 0 150 44.999999" height="60" preserveAspectRatio="xMidYMid meet" version="1.0"><defs><g/></defs><g fill="#f94d1f" fill-opacity="1"><g transform="translate(8.258813, 34.415673)"><g><path d="M 1.140625 -25.859375 L 7.984375 -25.859375 C 10.046875 -25.859375 11.519531 -25.191406 12.40625 -23.859375 C 13.289062 -22.523438 13.734375 -20.570312 13.734375 -18 C 13.734375 -15.4375 13.335938 -13.5 12.546875 -12.1875 C 11.765625 -10.882812 10.363281 -10.234375 8.34375 -10.234375 L 6.234375 -10.234375 L 6.234375 0 L 1.140625 0 Z M 6.53125 -14.90625 C 7.15625 -14.90625 7.613281 -15.019531 7.90625 -15.25 C 8.195312 -15.476562 8.382812 -15.804688 8.46875 -16.234375 C 8.5625 -16.671875 8.609375 -17.289062 8.609375 -18.09375 C 8.609375 -19.175781 8.488281 -19.957031 8.25 -20.4375 C 8.007812 -20.925781 7.53125 -21.171875 6.8125 -21.171875 L 6.234375 -21.171875 L 6.234375 -14.90625 Z M 6.53125 -14.90625 "/></g></g></g><g fill="#f94d1f" fill-opacity="1"><g transform="translate(22.469639, 34.415673)"><g><path d="M 7.140625 0.234375 C 5.003906 0.234375 3.421875 -0.363281 2.390625 -1.5625 C 1.359375 -2.769531 0.84375 -4.554688 0.84375 -6.921875 L 0.84375 -25.859375 L 5.875 -25.859375 L 5.875 -7.140625 C 5.875 -6.316406 5.953125 -5.671875 6.109375 -5.203125 C 6.273438 -4.742188 6.617188 -4.515625 7.140625 -4.515625 C 7.660156 -4.515625 8 -4.738281 8.15625 -5.1875 C 8.320312 -5.644531 8.40625 -6.296875 8.40625 -7.140625 L 8.40625 -25.859375 L 13.421875 -25.859375 L 13.421875 -6.921875 C 13.421875 -4.554688 12.90625 -2.769531 11.875 -1.5625 C 10.84375 -0.363281 9.265625 0.234375 7.140625 0.234375 Z M 7.140625 0.234375 "/></g></g></g><g fill="#f94d1f" fill-opacity="1"><g transform="translate(36.74068, 34.415673)"><g><path d="M 1.140625 0 L 1.140625 -25.859375 L 11.5 -25.859375 L 11.5 -20.828125 L 6.359375 -20.828125 L 6.359375 -16.703125 L 11.234375 -16.703125 L 11.234375 -11.75 L 6.359375 -11.75 L 6.359375 0 Z M 1.140625 0 "/></g></g></g><g fill="#f94d1f" fill-opacity="1"><g transform="translate(48.753642, 34.415673)"><g><path d="M 1.140625 0 L 1.140625 -25.859375 L 11.5 -25.859375 L 11.5 -20.828125 L 6.359375 -20.828125 L 6.359375 -16.703125 L 11.234375 -16.703125 L 11.234375 -11.75 L 6.359375 -11.75 L 6.359375 0 Z M 1.140625 0 "/></g></g></g><g fill="#f94d1f" fill-opacity="1"><g transform="translate(60.766604, 34.415673)"><g><path d="M 1.140625 0 L 1.140625 -25.859375 L 6.328125 -25.859375 L 6.328125 -4.390625 L 11.65625 -4.390625 L 11.65625 0 Z M 1.140625 0 "/></g></g></g><g fill="#f94d1f" fill-opacity="1"><g transform="translate(72.71935, 34.415673)"><g><path d="M 1.140625 0 L 1.140625 -25.859375 L 11.5 -25.859375 L 11.5 -20.859375 L 6.40625 -20.859375 L 6.40625 -15.84375 L 11.296875 -15.84375 L 11.296875 -10.953125 L 6.40625 -10.953125 L 6.40625 -5.03125 L 11.828125 -5.03125 L 11.828125 0 Z M 1.140625 0 "/></g></g></g><path stroke-linecap="butt" transform="matrix(0.280742, 0, 0, 0.280742, 85.731932, 9.024405)" fill="none" stroke-linejoin="miter" d="M 7.438801 -1.269623 L 31.802293 -1.269623 C 39.176736 -1.269623 44.436245 1.109679 47.594733 5.868282 C 50.753221 10.612971 52.339423 17.583908 52.339423 26.767177 C 52.339423 35.936532 50.934104 42.837898 48.137381 47.485189 C 45.340658 52.13248 40.331602 54.470039 33.110213 54.470039 L 25.582715 54.470039 L 25.582715 90.994406 L 7.438801 90.994406 Z M 26.654096 37.814928 C 28.880344 37.814928 30.508287 37.397507 31.537926 36.576578 C 32.581479 35.75565 33.263268 34.572956 33.583291 33.042411 C 33.903314 31.497952 34.056368 29.299533 34.056368 26.43324 C 34.056368 22.565136 33.625033 19.768413 32.776276 18.056985 C 31.913605 16.345558 30.202178 15.482887 27.62808 15.482887 L 25.582715 15.482887 L 25.582715 37.814928 Z M 80.139683 91.870991 C 72.69567 91.870991 67.032653 89.589088 63.178463 85.053109 C 59.310359 80.503217 57.376307 74.102756 57.376307 65.879556 L 57.376307 21.911175 C 57.376307 13.98017 59.310359 7.983217 63.178463 3.948144 C 67.032653 -0.100843 72.69567 -2.132293 80.139683 -2.132293 C 87.597611 -2.132293 93.246713 -0.100843 97.114818 3.948144 C 100.996836 7.983217 102.930888 13.98017 102.930888 21.911175 L 102.930888 65.879556 C 102.930888 74.172326 100.996836 80.586701 97.114818 85.094851 C 93.246713 89.603002 87.597611 91.870991 80.139683 91.870991 Z M 80.139683 74.895857 C 81.809369 74.895857 82.908578 74.172326 83.479054 72.73918 C 84.04953 71.306033 84.341725 69.302411 84.341725 66.714399 L 84.341725 21.605066 C 84.341725 19.58753 84.063444 17.959587 83.520796 16.721237 C 83.005977 15.468973 81.906767 14.828927 80.250996 14.828927 C 77.175992 14.828927 75.631533 17.152572 75.631533 21.813777 L 75.631533 66.811797 C 75.631533 69.469379 75.951556 71.486916 76.605516 72.850492 C 77.245562 74.214069 78.428256 74.895857 80.139683 74.895857 Z M 132.24778 91.870991 C 123.871525 91.870991 117.818916 89.797798 114.089952 85.651413 C 110.374902 81.491114 108.51042 74.784544 108.51042 65.531705 L 108.51042 56.515404 L 126.654334 56.515404 L 126.654334 67.994491 C 126.654334 72.600039 128.129223 74.895857 131.065086 74.895857 C 132.706943 74.895857 133.847895 74.408865 134.501855 73.448796 C 135.141901 72.474813 135.475838 70.832956 135.475838 68.551052 C 135.475838 65.545619 135.114073 63.055005 134.390543 61.093125 C 133.680926 59.11733 132.7626 57.475473 131.649476 56.139725 C 130.536352 54.817891 128.560558 52.744698 125.694265 49.947975 L 117.735432 42.003056 C 111.585424 35.992188 108.51042 29.327361 108.51042 22.022488 C 108.51042 14.147139 110.319246 8.164099 113.936897 4.059456 C 117.554549 -0.0730148 122.841886 -2.132293 129.784994 -2.132293 C 138.091679 -2.132293 144.060804 0.0661256 147.720197 4.476878 C 151.379591 8.873716 153.202331 15.775082 153.202331 25.139234 L 134.390543 25.139234 L 134.293144 18.794429 C 134.293144 17.583908 133.945293 16.623839 133.263505 15.914222 C 132.581717 15.190692 131.649476 14.828927 130.438954 14.828927 C 129.005808 14.828927 127.920512 15.232434 127.210896 16.011621 C 126.487366 16.804721 126.139514 17.876103 126.139514 19.239679 C 126.139514 22.245113 127.850942 25.361858 131.273797 28.576003 L 142.029353 38.88631 C 144.533881 41.335182 146.607074 43.644913 148.248931 45.829418 C 149.904702 48.027837 151.240451 50.601935 152.228348 53.579541 C 153.230159 56.543232 153.731065 60.063485 153.731065 64.1403 C 153.731065 73.240085 152.061379 80.127537 148.749837 84.830485 C 145.42438 89.519518 139.928332 91.870991 132.24778 91.870991 Z M 167.812078 90.994406 L 167.812078 16.429042 L 156.847811 16.429042 L 156.847811 -1.269623 L 197.240282 -1.269623 L 197.240282 16.429042 L 186.276015 16.429042 L 186.276015 90.994406 Z M 167.812078 90.994406 " stroke="#f94d1f" stroke-width="3.088883" stroke-opacity="1" stroke-miterlimit="4"/></svg>