<svg xmlns="http://www.w3.org/2000/svg" xmlns:xlink="http://www.w3.org/1999/xlink" width="500" zoomAndPan="magnify" viewBox="0 0 375 374.999991" height="500" preserveAspectRatio="xMidYMid meet" version="1.0"><defs><g/><clipPath id="b6eabf4ecb"><path d="M 137.757812 124.03125 L 264.507812 124.03125 L 264.507812 250.78125 L 137.757812 250.78125 Z M 137.757812 124.03125 " clip-rule="nonzero"/></clipPath></defs><rect x="-37.5" width="450" fill="#ffffff" y="-37.499999" height="449.999989" fill-opacity="1"/><rect x="-37.5" width="450" fill="#ffffff" y="-37.499999" height="449.999989" fill-opacity="1"/><rect x="-37.5" width="450" fill="#000000" y="-37.499999" height="449.999989" fill-opacity="1"/><path fill="#ffffff" d="M 188.378906 187.496094 C 188.378906 185.601562 186.84375 184.066406 184.953125 184.066406 C 183.058594 184.066406 181.523438 185.601562 181.523438 187.496094 C 181.523438 189.390625 183.058594 190.925781 184.953125 190.925781 C 186.84375 190.925781 188.378906 189.390625 188.378906 187.496094 " fill-opacity="1" fill-rule="nonzero"/><g clip-path="url(#b6eabf4ecb)"><path fill="#ffffff" d="M 264.355469 127.667969 C 264.355469 125.839844 262.804688 124.285156 260.972656 124.285156 C 257 124.285156 253.027344 124.285156 249.058594 124.285156 C 239.523438 124.285156 229.992188 124.285156 220.457031 124.285156 C 208.96875 124.285156 197.484375 124.285156 185.996094 124.285156 C 176.019531 124.285156 166.046875 124.285156 156.074219 124.285156 C 151.230469 124.285156 146.359375 124.121094 141.519531 124.285156 C 141.453125 124.285156 141.382812 124.285156 141.3125 124.285156 C 139.484375 124.285156 137.929688 125.835938 137.929688 127.667969 C 137.929688 131.640625 137.929688 135.609375 137.929688 139.578125 C 137.929688 149.113281 137.929688 158.648438 137.929688 168.183594 C 137.929688 179.667969 137.929688 191.15625 137.929688 202.644531 C 137.929688 212.617188 137.929688 222.589844 137.929688 232.566406 C 137.929688 237.40625 137.769531 242.28125 137.929688 247.117188 C 137.933594 247.1875 137.929688 247.257812 137.929688 247.324219 C 137.929688 249.15625 139.480469 250.710938 141.3125 250.710938 C 150.839844 250.710938 160.363281 250.710938 169.886719 250.710938 C 171.25 250.710938 172.609375 250.710938 173.96875 250.710938 C 175.003906 250.710938 175.792969 250.320312 176.335938 249.738281 C 176.945312 249.191406 177.351562 248.390625 177.351562 247.324219 C 177.351562 243.921875 177.351562 240.519531 177.351562 237.117188 C 177.351562 228.988281 177.351562 220.863281 177.351562 212.734375 C 177.351562 202.859375 177.351562 192.980469 177.351562 183.105469 C 177.351562 174.5625 177.351562 166.023438 177.351562 157.480469 C 177.351562 154.414062 177.4375 151.332031 177.417969 148.253906 C 186.933594 148.253906 196.453125 148.253906 205.96875 148.253906 C 208.914062 148.253906 211.375 148.539062 213.972656 149.648438 C 218.132812 151.425781 221.265625 154.59375 223.34375 158.796875 C 224.140625 160.414062 224.800781 163.152344 224.902344 165.042969 C 225.039062 167.613281 224.816406 169.3125 224.0625 171.691406 C 222.761719 175.785156 219.769531 179.46875 215.980469 181.683594 C 214.628906 182.472656 213.984375 182.761719 212.683594 183.1875 C 211.988281 183.414062 211.28125 183.605469 210.566406 183.761719 C 209.78125 183.929688 209.652344 183.953125 209.082031 184.011719 C 207.699219 184.144531 206.304688 184.113281 204.914062 184.113281 C 201.820312 184.113281 198.722656 184.113281 195.625 184.113281 C 191.269531 184.113281 191.261719 190.878906 195.625 190.878906 C 198.539062 190.878906 201.453125 190.878906 204.363281 190.878906 C 208.289062 190.878906 212.140625 190.691406 215.84375 189.214844 C 226.910156 184.804688 233.347656 173.28125 231.25 161.546875 C 229.1875 150.015625 218.574219 141.578125 207.003906 141.488281 C 202.035156 141.449219 197.066406 141.488281 192.101562 141.488281 C 186.054688 141.488281 180.011719 141.488281 173.96875 141.488281 C 172.929688 141.488281 172.144531 141.875 171.601562 142.460938 C 170.988281 143.003906 170.585938 143.804688 170.585938 144.871094 C 170.585938 148.273438 170.585938 151.675781 170.585938 155.082031 C 170.585938 163.207031 170.585938 171.335938 170.585938 179.460938 C 170.585938 189.339844 170.585938 199.214844 170.585938 209.09375 C 170.585938 217.632812 170.585938 226.175781 170.585938 234.714844 C 170.585938 237.78125 170.5 240.867188 170.519531 243.941406 C 162.144531 243.941406 153.769531 243.941406 145.394531 243.941406 C 145.160156 243.941406 144.929688 243.941406 144.699219 243.941406 C 144.699219 241.097656 144.699219 238.257812 144.699219 235.414062 C 144.699219 225.878906 144.699219 216.34375 144.699219 206.8125 C 144.699219 195.324219 144.699219 183.835938 144.699219 172.347656 C 144.699219 162.375 144.699219 152.402344 144.699219 142.425781 C 144.699219 139.148438 144.699219 135.867188 144.699219 132.589844 C 144.699219 132.078125 144.707031 131.566406 144.71875 131.050781 C 147.554688 131.050781 150.390625 131.050781 153.226562 131.050781 C 162.757812 131.050781 172.292969 131.050781 181.828125 131.050781 C 193.316406 131.050781 204.800781 131.050781 216.289062 131.050781 C 226.265625 131.050781 236.238281 131.050781 246.210938 131.050781 C 249.492188 131.050781 252.769531 131.050781 256.050781 131.050781 C 256.558594 131.050781 257.070312 131.0625 257.585938 131.074219 C 257.585938 133.910156 257.585938 136.746094 257.585938 139.578125 C 257.585938 149.113281 257.585938 158.648438 257.585938 168.183594 C 257.585938 179.667969 257.585938 191.15625 257.585938 202.644531 C 257.585938 212.617188 257.585938 222.589844 257.585938 232.566406 C 257.585938 235.84375 257.585938 239.125 257.585938 242.402344 C 257.585938 242.914062 257.574219 243.425781 257.566406 243.941406 C 248.519531 243.941406 239.472656 243.941406 230.425781 243.941406 C 228.960938 243.941406 227.5 243.941406 226.039062 243.941406 C 221.683594 243.941406 221.675781 250.710938 226.039062 250.710938 C 236.21875 250.710938 246.402344 250.710938 256.582031 250.710938 C 258.046875 250.710938 259.507812 250.710938 260.972656 250.710938 C 262.800781 250.710938 264.355469 249.160156 264.355469 247.324219 C 264.355469 243.355469 264.355469 239.382812 264.355469 235.414062 C 264.355469 225.878906 264.355469 216.34375 264.355469 206.8125 C 264.355469 195.324219 264.355469 183.835938 264.355469 172.347656 C 264.355469 162.375 264.355469 152.402344 264.355469 142.425781 C 264.355469 137.585938 264.515625 132.714844 264.355469 127.875 C 264.351562 127.804688 264.355469 127.738281 264.355469 127.667969 " fill-opacity="1" fill-rule="nonzero"/></g><g fill="#ffffff" fill-opacity="1"><g transform="translate(129.025755, 248.029027)"><g><path d="M -16.042969 -7.121094 L -16.042969 -1.367188 L 0 -1.367188 L 0 -5.007812 L -4.777344 -5.007812 L -4.777344 -7.121094 C -4.777344 -11.171875 -5.550781 -14.265625 -10.421875 -14.265625 C -15.269531 -14.265625 -16.042969 -11.171875 -16.042969 -7.121094 Z M -7.964844 -5.007812 L -12.855469 -5.007812 L -12.855469 -7.351562 C -12.855469 -9.511719 -12.628906 -10.625 -10.421875 -10.625 C -8.191406 -10.625 -7.964844 -9.511719 -7.964844 -7.351562 Z M -7.964844 -5.007812 "/></g></g></g><g fill="#ffffff" fill-opacity="1"><g transform="translate(129.025755, 225.82416)"><g><path d="M -5.960938 -0.910156 C -1.957031 -0.910156 0.226562 -3.390625 0.226562 -8.144531 C 0.226562 -12.902344 -1.957031 -15.40625 -5.960938 -15.40625 L -16.042969 -15.40625 L -16.042969 -11.765625 L -7.578125 -11.765625 C -4.710938 -11.765625 -2.957031 -11.492188 -2.957031 -8.144531 C -2.957031 -4.800781 -4.710938 -4.550781 -7.578125 -4.550781 L -16.042969 -4.550781 L -16.042969 -0.910156 Z M -5.960938 -0.910156 "/></g></g></g><g fill="#ffffff" fill-opacity="1"><g transform="translate(129.025755, 202.481991)"><g><path d="M 0 -5.007812 L -5.007812 -5.007812 L -5.460938 -12.289062 L -8.691406 -12.289062 L -8.238281 -5.007812 L -12.855469 -5.007812 L -12.855469 -12.8125 L -16.042969 -12.8125 L -16.042969 -1.367188 L 0 -1.367188 Z M 0 -5.007812 "/></g></g></g><g fill="#ffffff" fill-opacity="1"><g transform="translate(129.025755, 181.732869)"><g><path d="M 0 -5.007812 L -5.007812 -5.007812 L -5.460938 -12.289062 L -8.691406 -12.289062 L -8.238281 -5.007812 L -12.855469 -5.007812 L -12.855469 -12.8125 L -16.042969 -12.8125 L -16.042969 -1.367188 L 0 -1.367188 Z M 0 -5.007812 "/></g></g></g><g fill="#ffffff" fill-opacity="1"><g transform="translate(129.025755, 160.983748)"><g><path d="M 0 -12.8125 L -3.1875 -12.8125 L -2.957031 -5.007812 L -16.042969 -5.007812 L -16.042969 -1.367188 L -1.683594 -1.367188 C -0.433594 -1.367188 0.25 -2.070312 0.226562 -3.320312 Z M 0 -12.8125 "/></g></g></g><g fill="#ffffff" fill-opacity="1"><g transform="translate(129.025755, 140.689553)"><g><path d="M 0 -12.8125 L -3.1875 -12.8125 L -3.1875 -5.007812 L -6.441406 -5.007812 L -6.441406 -11.671875 L -9.625 -11.671875 L -9.625 -5.007812 L -12.855469 -5.007812 L -12.855469 -12.8125 L -16.042969 -12.8125 L -16.042969 -1.367188 L 0 -1.367188 Z M 0 -12.8125 "/></g></g></g><g fill="#ff5143" fill-opacity="1"><g transform="translate(226.466327, 239.327065)"><g><path d="M 4.625 -9.90625 C 5.882812 -9.90625 6.515625 -9.234375 6.515625 -7.890625 L 6.515625 -5.90625 C 6.515625 -4.5625 5.882812 -3.890625 4.625 -3.890625 L 2.890625 -3.890625 L 2.890625 0 L 0.75 0 L 0.75 -9.90625 Z M 4.375 -5.671875 L 4.375 -8.125 C 4.375 -8.207031 4.34375 -8.28125 4.28125 -8.34375 C 4.226562 -8.40625 4.164062 -8.4375 4.09375 -8.4375 L 2.890625 -8.4375 L 2.890625 -5.359375 L 4.09375 -5.359375 C 4.164062 -5.359375 4.226562 -5.390625 4.28125 -5.453125 C 4.34375 -5.515625 4.375 -5.585938 4.375 -5.671875 Z M 4.375 -5.671875 "/></g></g></g><g fill="#ff5143" fill-opacity="1"><g transform="translate(233.292213, 239.327065)"><g><path d="M 6.59375 -8.03125 L 6.59375 -1.875 C 6.59375 -0.519531 5.960938 0.15625 4.703125 0.15625 L 2.671875 0.15625 C 1.398438 0.15625 0.765625 -0.519531 0.765625 -1.875 L 0.765625 -8.03125 C 0.765625 -9.382812 1.398438 -10.0625 2.671875 -10.0625 L 4.703125 -10.0625 C 5.960938 -10.0625 6.59375 -9.382812 6.59375 -8.03125 Z M 4.453125 -1.625 L 4.453125 -8.296875 C 4.453125 -8.378906 4.421875 -8.453125 4.359375 -8.515625 C 4.304688 -8.578125 4.242188 -8.609375 4.171875 -8.609375 L 3.203125 -8.609375 C 3.117188 -8.609375 3.046875 -8.578125 2.984375 -8.515625 C 2.929688 -8.453125 2.90625 -8.378906 2.90625 -8.296875 L 2.90625 -1.625 C 2.90625 -1.539062 2.929688 -1.46875 2.984375 -1.40625 C 3.046875 -1.34375 3.117188 -1.3125 3.203125 -1.3125 L 4.171875 -1.3125 C 4.242188 -1.3125 4.304688 -1.34375 4.359375 -1.40625 C 4.421875 -1.46875 4.453125 -1.539062 4.453125 -1.625 Z M 4.453125 -1.625 "/></g></g></g><g fill="#ff5143" fill-opacity="1"><g transform="translate(240.699675, 239.327065)"><g><path d="M 6.265625 -7.296875 L 4.21875 -7.296875 L 4.21875 -8.078125 C 4.21875 -8.160156 4.191406 -8.234375 4.140625 -8.296875 C 4.085938 -8.359375 4.019531 -8.390625 3.9375 -8.390625 L 3.09375 -8.390625 C 3.007812 -8.390625 2.9375 -8.359375 2.875 -8.296875 C 2.820312 -8.234375 2.796875 -8.160156 2.796875 -8.078125 L 2.796875 -6.328125 C 2.796875 -6.242188 2.820312 -6.171875 2.875 -6.109375 C 2.9375 -6.046875 3.007812 -6.015625 3.09375 -6.015625 L 4.46875 -6.015625 C 5.738281 -5.992188 6.375 -5.320312 6.375 -4 L 6.375 -1.875 C 6.375 -0.519531 5.738281 0.15625 4.46875 0.15625 L 2.671875 0.15625 C 1.398438 0.15625 0.765625 -0.519531 0.765625 -1.875 L 0.765625 -2.890625 L 2.796875 -2.890625 L 2.796875 -1.796875 C 2.796875 -1.710938 2.820312 -1.640625 2.875 -1.578125 C 2.9375 -1.515625 3.007812 -1.484375 3.09375 -1.484375 L 4.046875 -1.484375 C 4.128906 -1.484375 4.195312 -1.515625 4.25 -1.578125 C 4.300781 -1.640625 4.328125 -1.710938 4.328125 -1.796875 L 4.328125 -3.734375 C 4.328125 -3.816406 4.300781 -3.890625 4.25 -3.953125 C 4.195312 -4.015625 4.128906 -4.046875 4.046875 -4.046875 L 2.671875 -4.046875 C 1.398438 -4.046875 0.765625 -4.71875 0.765625 -6.0625 L 0.765625 -8.03125 C 0.765625 -9.382812 1.398438 -10.0625 2.671875 -10.0625 L 4.359375 -10.0625 C 5.628906 -10.0625 6.265625 -9.382812 6.265625 -8.03125 Z M 6.265625 -7.296875 "/></g></g></g><g fill="#ff5143" fill-opacity="1"><g transform="translate(247.709215, 239.327065)"><g><path d="M 0.203125 -8.078125 L 0.203125 -9.90625 L 5.5625 -9.90625 L 5.5625 -8.078125 L 3.953125 -8.078125 L 3.953125 0 L 1.8125 0 L 1.8125 -8.078125 Z M 0.203125 -8.078125 "/></g></g></g></svg>