<svg xmlns="http://www.w3.org/2000/svg" xmlns:xlink="http://www.w3.org/1999/xlink" width="500" zoomAndPan="magnify" viewBox="0 0 375 374.999991" height="500" preserveAspectRatio="xMidYMid meet" version="1.0"><defs><g/></defs><rect x="-37.5" width="450" fill="#ffffff" y="-37.499999" height="449.999989" fill-opacity="1"/><rect x="-37.5" width="450" fill="#ffffff" y="-37.499999" height="449.999989" fill-opacity="1"/><rect x="-37.5" width="450" fill="#ffffff" y="-37.499999" height="449.999989" fill-opacity="1"/><g fill="#e63946" fill-opacity="1"><g transform="translate(42.85193, 171.473446)"><g><path d="M 4.3125 -97.34375 L 30.03125 -97.34375 C 37.8125 -97.34375 43.363281 -94.832031 46.6875 -89.8125 C 50.007812 -84.789062 51.671875 -77.441406 51.671875 -67.765625 C 51.671875 -58.097656 50.195312 -50.804688 47.25 -45.890625 C 44.3125 -40.984375 39.023438 -38.53125 31.390625 -38.53125 L 23.453125 -38.53125 L 23.453125 0 L 4.3125 0 Z M 24.59375 -56.09375 C 26.9375 -56.09375 28.65625 -56.523438 29.75 -57.390625 C 30.84375 -58.265625 31.554688 -59.515625 31.890625 -61.140625 C 32.234375 -62.765625 32.40625 -65.085938 32.40625 -68.109375 C 32.40625 -72.191406 31.953125 -75.140625 31.046875 -76.953125 C 30.140625 -78.765625 28.328125 -79.671875 25.609375 -79.671875 L 23.453125 -79.671875 L 23.453125 -56.09375 Z M 24.59375 -56.09375 "/></g></g></g><g fill="#e63946" fill-opacity="1"><g transform="translate(96.337282, 171.473446)"><g><path d="M 26.859375 0.90625 C 18.847656 0.90625 12.894531 -1.359375 9 -5.890625 C 5.113281 -10.421875 3.171875 -17.144531 3.171875 -26.0625 L 3.171875 -97.34375 L 22.09375 -97.34375 L 22.09375 -26.859375 C 22.09375 -23.765625 22.394531 -21.347656 23 -19.609375 C 23.601562 -17.867188 24.890625 -17 26.859375 -17 C 28.828125 -17 30.113281 -17.847656 30.71875 -19.546875 C 31.320312 -21.242188 31.625 -23.679688 31.625 -26.859375 L 31.625 -97.34375 L 50.546875 -97.34375 L 50.546875 -26.0625 C 50.546875 -17.144531 48.597656 -10.421875 44.703125 -5.890625 C 40.816406 -1.359375 34.867188 0.90625 26.859375 0.90625 Z M 26.859375 0.90625 "/></g></g></g><g fill="#e63946" fill-opacity="1"><g transform="translate(150.049273, 171.473446)"><g><path d="M 4.3125 0 L 4.3125 -97.34375 L 43.296875 -97.34375 L 43.296875 -78.421875 L 23.90625 -78.421875 L 23.90625 -62.890625 L 42.265625 -62.890625 L 42.265625 -44.203125 L 23.90625 -44.203125 L 23.90625 0 Z M 4.3125 0 "/></g></g></g><g fill="#e63946" fill-opacity="1"><g transform="translate(195.262531, 171.473446)"><g><path d="M 4.3125 0 L 4.3125 -97.34375 L 43.296875 -97.34375 L 43.296875 -78.421875 L 23.90625 -78.421875 L 23.90625 -62.890625 L 42.265625 -62.890625 L 42.265625 -44.203125 L 23.90625 -44.203125 L 23.90625 0 Z M 4.3125 0 "/></g></g></g><g fill="#e63946" fill-opacity="1"><g transform="translate(240.475788, 171.473446)"><g><path d="M 4.3125 0 L 4.3125 -97.34375 L 23.796875 -97.34375 L 23.796875 -16.546875 L 43.859375 -16.546875 L 43.859375 0 Z M 4.3125 0 "/></g></g></g><g fill="#e63946" fill-opacity="1"><g transform="translate(285.462407, 171.473446)"><g><path d="M 4.3125 0 L 4.3125 -97.34375 L 43.296875 -97.34375 L 43.296875 -78.53125 L 24.140625 -78.53125 L 24.140625 -59.609375 L 42.5 -59.609375 L 42.5 -41.25 L 24.140625 -41.25 L 24.140625 -18.921875 L 44.53125 -18.921875 L 44.53125 0 Z M 4.3125 0 "/></g></g></g><g fill="#151f28" fill-opacity="1"><g transform="translate(74.896353, 291.699867)"><g><path d="M 4.8125 -108.921875 L 33.59375 -108.921875 C 42.300781 -108.921875 48.515625 -106.109375 52.234375 -100.484375 C 55.953125 -94.859375 57.8125 -86.640625 57.8125 -75.828125 C 57.8125 -65.003906 56.160156 -56.84375 52.859375 -51.34375 C 49.566406 -45.851562 43.65625 -43.109375 35.125 -43.109375 L 26.25 -43.109375 L 26.25 0 L 4.8125 0 Z M 27.515625 -62.765625 C 30.140625 -62.765625 32.0625 -63.25 33.28125 -64.21875 C 34.507812 -65.195312 35.3125 -66.59375 35.6875 -68.40625 C 36.070312 -70.226562 36.265625 -72.828125 36.265625 -76.203125 C 36.265625 -80.765625 35.753906 -84.0625 34.734375 -86.09375 C 33.722656 -88.125 31.695312 -89.140625 28.65625 -89.140625 L 26.25 -89.140625 L 26.25 -62.765625 Z M 27.515625 -62.765625 "/></g></g></g><g fill="#151f28" fill-opacity="1"><g transform="translate(134.740368, 291.699867)"><g><path d="M 30.8125 1.015625 C 22.019531 1.015625 15.34375 -1.664062 10.78125 -7.03125 C 6.21875 -12.40625 3.9375 -19.953125 3.9375 -29.671875 L 3.9375 -81.53125 C 3.9375 -90.914062 6.21875 -97.992188 10.78125 -102.765625 C 15.34375 -107.546875 22.019531 -109.9375 30.8125 -109.9375 C 39.601562 -109.9375 46.28125 -107.546875 50.84375 -102.765625 C 55.40625 -97.992188 57.6875 -90.914062 57.6875 -81.53125 L 57.6875 -29.671875 C 57.6875 -19.867188 55.40625 -12.300781 50.84375 -6.96875 C 46.28125 -1.644531 39.601562 1.015625 30.8125 1.015625 Z M 30.8125 -19.015625 C 32.757812 -19.015625 34.066406 -19.859375 34.734375 -21.546875 C 35.410156 -23.242188 35.75 -25.613281 35.75 -28.65625 L 35.75 -81.90625 C 35.75 -84.28125 35.429688 -86.207031 34.796875 -87.6875 C 34.171875 -89.164062 32.882812 -89.90625 30.9375 -89.90625 C 27.300781 -89.90625 25.484375 -87.15625 25.484375 -81.65625 L 25.484375 -28.53125 C 25.484375 -25.40625 25.863281 -23.035156 26.625 -21.421875 C 27.382812 -19.816406 28.78125 -19.015625 30.8125 -19.015625 Z M 30.8125 -19.015625 "/></g></g></g><g fill="#151f28" fill-opacity="1"><g transform="translate(196.359418, 291.699867)"><g><path d="M 30.6875 1.015625 C 20.789062 1.015625 13.644531 -1.429688 9.25 -6.328125 C 4.851562 -11.234375 2.65625 -19.140625 2.65625 -30.046875 L 2.65625 -40.703125 L 24.09375 -40.703125 L 24.09375 -27.140625 C 24.09375 -21.722656 25.828125 -19.015625 29.296875 -19.015625 C 31.234375 -19.015625 32.582031 -19.582031 33.34375 -20.71875 C 34.101562 -21.863281 34.484375 -23.789062 34.484375 -26.5 C 34.484375 -30.050781 34.0625 -32.988281 33.21875 -35.3125 C 32.375 -37.632812 31.296875 -39.578125 29.984375 -41.140625 C 28.671875 -42.703125 26.328125 -45.132812 22.953125 -48.4375 L 13.5625 -57.8125 C 6.289062 -64.914062 2.65625 -72.78125 2.65625 -81.40625 C 2.65625 -90.695312 4.789062 -97.773438 9.0625 -102.640625 C 13.332031 -107.503906 19.566406 -109.9375 27.765625 -109.9375 C 37.578125 -109.9375 44.632812 -107.335938 48.9375 -102.140625 C 53.25 -96.941406 55.40625 -88.800781 55.40625 -77.71875 L 33.21875 -77.71875 L 33.09375 -85.203125 C 33.09375 -86.640625 32.691406 -87.78125 31.890625 -88.625 C 31.085938 -89.476562 29.96875 -89.90625 28.53125 -89.90625 C 26.84375 -89.90625 25.570312 -89.4375 24.71875 -88.5 C 23.875 -87.570312 23.453125 -86.304688 23.453125 -84.703125 C 23.453125 -81.148438 25.484375 -77.472656 29.546875 -73.671875 L 42.21875 -61.5 C 45.175781 -58.625 47.628906 -55.894531 49.578125 -53.3125 C 51.523438 -50.738281 53.085938 -47.695312 54.265625 -44.1875 C 55.453125 -40.675781 56.046875 -36.515625 56.046875 -31.703125 C 56.046875 -20.960938 54.078125 -12.820312 50.140625 -7.28125 C 46.210938 -1.75 39.726562 1.015625 30.6875 1.015625 Z M 30.6875 1.015625 "/></g></g></g><g fill="#151f28" fill-opacity="1"><g transform="translate(254.808758, 291.699867)"><g><path d="M 14.203125 0 L 14.203125 -88 L 1.265625 -88 L 1.265625 -108.921875 L 48.9375 -108.921875 L 48.9375 -88 L 36.015625 -88 L 36.015625 0 Z M 14.203125 0 "/></g></g></g><path stroke-linecap="butt" transform="matrix(0.75, 0, 0, 0.75, 0.0000045, 0)" fill="none" stroke-linejoin="miter" d="M -0.000006 10.000001 L 500.000027 10.000001 " stroke="#151f28" stroke-width="20" stroke-opacity="1" stroke-miterlimit="4"/><path stroke-linecap="butt" transform="matrix(0.75, 0, 0, 0.75, 0.0000045, 359.999976)" fill="none" stroke-linejoin="miter" d="M -0.000006 10.000032 L 500.000027 10.000032 " stroke="#151f28" stroke-width="20" stroke-opacity="1" stroke-miterlimit="4"/><path stroke-linecap="butt" transform="matrix(0.000000000000000046, 0.75, -0.75, 0.000000000000000046, 12.000004, 0)" fill="none" stroke-linejoin="miter" d="M -0.000000000000000612 10.000006 L 500.000033 10.000006 " stroke="#151f28" stroke-width="20" stroke-opacity="1" stroke-miterlimit="4"/><path stroke-linecap="butt" transform="matrix(0.000000000000000046, 0.75, -0.75, 0.000000000000000046, 374.99998, 0)" fill="none" stroke-linejoin="miter" d="M -0.000000000000000612 9.999974 L 500.000033 9.999974 " stroke="#151f28" stroke-width="20" stroke-opacity="1" stroke-miterlimit="4"/></svg>