<svg xmlns="http://www.w3.org/2000/svg" xmlns:xlink="http://www.w3.org/1999/xlink" width="300" zoomAndPan="magnify" viewBox="0 0 224.87999 67.499998" height="90" preserveAspectRatio="xMidYMid meet" version="1.0"><defs><g/><clipPath id="22ef26e0fa"><path d="M 0.765625 0 L 223.992188 0 L 223.992188 67.003906 L 0.765625 67.003906 Z M 0.765625 0 " clip-rule="nonzero"/></clipPath><clipPath id="77b2f423aa"><path d="M 124 3 L 223.992188 3 L 223.992188 61 L 124 61 Z M 124 3 " clip-rule="nonzero"/></clipPath><clipPath id="63873800da"><path d="M 0.765625 0 L 223.992188 0 L 223.992188 5 L 0.765625 5 Z M 0.765625 0 " clip-rule="nonzero"/></clipPath><clipPath id="85e50ef4ac"><path d="M 0.765625 0 L 6 0 L 6 67.003906 L 0.765625 67.003906 Z M 0.765625 0 " clip-rule="nonzero"/></clipPath><clipPath id="dd93ac335d"><path d="M 0.765625 62 L 223.992188 62 L 223.992188 67.003906 L 0.765625 67.003906 Z M 0.765625 62 " clip-rule="nonzero"/></clipPath><clipPath id="7ccf1fbdf9"><path d="M 219 0 L 223.992188 0 L 223.992188 67.003906 L 219 67.003906 Z M 219 0 " clip-rule="nonzero"/></clipPath></defs><g clip-path="url(#22ef26e0fa)"><path fill="#ffffff" d="M 0.765625 0 L 224.113281 0 L 224.113281 74.449219 L 0.765625 74.449219 Z M 0.765625 0 " fill-opacity="1" fill-rule="nonzero"/><path fill="#ffffff" d="M 0.765625 0 L 224.113281 0 L 224.113281 67.003906 L 0.765625 67.003906 Z M 0.765625 0 " fill-opacity="1" fill-rule="nonzero"/><path fill="#000000" d="M 0.765625 0 L 224.113281 0 L 224.113281 67.003906 L 0.765625 67.003906 Z M 0.765625 0 " fill-opacity="1" fill-rule="nonzero"/></g><g fill="#f94d1f" fill-opacity="1"><g transform="translate(8.414512, 52.074085)"><g><path d="M 1.78125 -40.3125 L 12.4375 -40.3125 C 15.65625 -40.3125 17.953125 -39.269531 19.328125 -37.1875 C 20.703125 -35.101562 21.390625 -32.0625 21.390625 -28.0625 C 21.390625 -24.050781 20.78125 -21.03125 19.5625 -19 C 18.34375 -16.96875 16.15625 -15.953125 13 -15.953125 L 9.71875 -15.953125 L 9.71875 0 L 1.78125 0 Z M 10.1875 -23.21875 C 11.15625 -23.21875 11.863281 -23.398438 12.3125 -23.765625 C 12.769531 -24.128906 13.066406 -24.644531 13.203125 -25.3125 C 13.347656 -25.988281 13.421875 -26.953125 13.421875 -28.203125 C 13.421875 -29.890625 13.234375 -31.109375 12.859375 -31.859375 C 12.484375 -32.609375 11.734375 -32.984375 10.609375 -32.984375 L 9.71875 -32.984375 L 9.71875 -23.21875 Z M 10.1875 -23.21875 "/></g></g></g><g fill="#f94d1f" fill-opacity="1"><g transform="translate(30.564075, 52.074085)"><g><path d="M 11.125 0.375 C 7.800781 0.375 5.332031 -0.5625 3.71875 -2.4375 C 2.113281 -4.3125 1.3125 -7.097656 1.3125 -10.796875 L 1.3125 -40.3125 L 9.15625 -40.3125 L 9.15625 -11.125 C 9.15625 -9.84375 9.28125 -8.835938 9.53125 -8.109375 C 9.78125 -7.390625 10.3125 -7.03125 11.125 -7.03125 C 11.9375 -7.03125 12.46875 -7.382812 12.71875 -8.09375 C 12.96875 -8.800781 13.09375 -9.8125 13.09375 -11.125 L 13.09375 -40.3125 L 20.921875 -40.3125 L 20.921875 -10.796875 C 20.921875 -7.097656 20.113281 -4.3125 18.5 -2.4375 C 16.894531 -0.5625 14.4375 0.375 11.125 0.375 Z M 11.125 0.375 "/></g></g></g><g fill="#f94d1f" fill-opacity="1"><g transform="translate(52.807492, 52.074085)"><g><path d="M 1.78125 0 L 1.78125 -40.3125 L 17.921875 -40.3125 L 17.921875 -32.46875 L 9.90625 -32.46875 L 9.90625 -26.046875 L 17.5 -26.046875 L 17.5 -18.296875 L 9.90625 -18.296875 L 9.90625 0 Z M 1.78125 0 "/></g></g></g><g fill="#f94d1f" fill-opacity="1"><g transform="translate(71.531377, 52.074085)"><g><path d="M 1.78125 0 L 1.78125 -40.3125 L 17.921875 -40.3125 L 17.921875 -32.46875 L 9.90625 -32.46875 L 9.90625 -26.046875 L 17.5 -26.046875 L 17.5 -18.296875 L 9.90625 -18.296875 L 9.90625 0 Z M 1.78125 0 "/></g></g></g><g fill="#f94d1f" fill-opacity="1"><g transform="translate(90.255261, 52.074085)"><g><path d="M 1.78125 0 L 1.78125 -40.3125 L 9.859375 -40.3125 L 9.859375 -6.84375 L 18.15625 -6.84375 L 18.15625 0 Z M 1.78125 0 "/></g></g></g><g fill="#f94d1f" fill-opacity="1"><g transform="translate(108.885292, 52.074085)"><g><path d="M 1.78125 0 L 1.78125 -40.3125 L 17.921875 -40.3125 L 17.921875 -32.515625 L 10 -32.515625 L 10 -24.6875 L 17.59375 -24.6875 L 17.59375 -17.078125 L 10 -17.078125 L 10 -7.84375 L 18.4375 -7.84375 L 18.4375 0 Z M 1.78125 0 "/></g></g></g><g clip-path="url(#77b2f423aa)"><path stroke-linecap="butt" transform="matrix(0.437575, 0, 0, 0.437575, 129.167206, 12.498237)" fill="none" stroke-linejoin="miter" d="M 7.437968 -1.272538 L 31.799863 -1.272538 C 39.182526 -1.272538 44.440553 1.110982 47.591799 5.860168 C 50.751971 10.618281 52.340984 17.5903 52.340984 26.767298 C 52.340984 35.926442 50.939439 42.835972 48.145275 47.486961 C 45.342184 52.137949 40.334114 54.467907 33.112138 54.467907 L 25.586642 54.467907 L 25.586642 90.997359 L 7.437968 90.997359 Z M 26.657887 37.810048 C 28.88072 37.810048 30.505442 37.399404 31.540979 36.578116 C 32.585442 35.756829 33.272825 34.578459 33.585271 33.034081 C 33.897718 31.49863 34.058404 29.293651 34.058404 26.428071 C 34.058404 22.562662 33.629906 19.777425 32.77291 18.063433 C 31.915914 16.349441 30.201923 15.492445 27.630935 15.492445 L 25.586642 15.492445 L 25.586642 37.810048 Z M 80.13979 91.863282 C 72.694638 91.863282 67.034894 89.595813 63.178412 85.043022 C 59.313003 80.499159 57.375836 74.107397 57.375836 65.876665 L 57.375836 21.910988 C 57.375836 13.974848 59.313003 7.984804 63.178412 3.949781 C 67.034894 -0.103095 72.694638 -2.138461 80.13979 -2.138461 C 87.59387 -2.138461 93.244687 -0.103095 97.110095 3.949781 C 100.993358 7.984804 102.939453 13.974848 102.939453 21.910988 L 102.939453 65.876665 C 102.939453 74.178813 100.993358 80.588429 97.110095 85.096585 C 93.244687 89.613667 87.59387 91.863282 80.13979 91.863282 Z M 80.13979 74.892977 C 81.809147 74.892977 82.9161 74.178813 83.478504 72.74156 C 84.049834 71.313233 84.344427 69.304649 84.344427 66.715807 L 84.344427 21.598542 C 84.344427 19.589957 84.067688 17.965236 83.523139 16.724377 C 83.00537 15.465664 81.907344 14.831844 80.246915 14.831844 C 77.167086 14.831844 75.631635 17.161802 75.631635 21.812791 L 75.631635 66.814005 C 75.631635 69.474263 75.953008 71.482847 76.604682 72.848684 C 77.247429 74.214522 78.425798 74.892977 80.13979 74.892977 Z M 132.246929 91.863282 C 123.873365 91.863282 117.820831 89.792208 114.098255 85.650061 C 110.375678 81.49006 108.509927 74.785852 108.509927 65.528511 L 108.509927 56.512199 L 126.658601 56.512199 L 126.658601 68.001301 C 126.658601 72.598727 128.131563 74.892977 131.06856 74.892977 C 132.711135 74.892977 133.853796 74.410917 134.50547 73.455723 C 135.148217 72.473749 135.469591 70.8401 135.469591 68.545851 C 135.469591 65.537438 135.112509 63.05572 134.398346 61.100698 C 133.675256 59.127822 132.764697 57.467393 131.63989 56.14619 C 130.541864 54.816061 128.560061 52.753915 125.685554 49.950824 L 117.740487 42.005757 C 111.589756 35.988932 108.509927 29.329359 108.509927 22.018112 C 108.509927 14.153389 110.322116 8.163345 113.937568 4.056906 C 117.561946 -0.0763142 122.837828 -2.138461 129.783066 -2.138461 C 138.085214 -2.138461 144.066331 0.0665185 147.717491 4.476477 C 151.377578 8.877508 153.198694 15.769184 153.198694 25.142577 L 134.398346 25.142577 L 134.291221 18.795451 C 134.291221 17.5903 133.951994 16.62618 133.264612 15.912016 C 132.586157 15.188926 131.63989 14.831844 130.43474 14.831844 C 129.006413 14.831844 127.926241 15.224634 127.212078 16.010214 C 126.488988 16.80472 126.131906 17.875965 126.131906 19.241803 C 126.131906 22.250216 127.845898 25.356826 131.273882 28.579488 L 142.030966 38.881293 C 144.530538 41.336229 146.601611 43.648333 148.244187 45.835458 C 149.904616 48.022583 151.234745 50.602498 152.234574 53.575203 C 153.225476 56.547907 153.72539 60.065162 153.72539 64.144819 C 153.72539 73.232547 152.06496 80.13315 148.744101 84.837701 C 145.423242 89.524397 139.924184 91.863282 132.246929 91.863282 Z M 167.812261 90.997359 L 167.812261 16.429785 L 156.849854 16.429785 L 156.849854 -1.272538 L 197.244715 -1.272538 L 197.244715 16.429785 L 186.282309 16.429785 L 186.282309 90.997359 Z M 167.812261 90.997359 " stroke="#f94d1f" stroke-width="3.088883" stroke-opacity="1" stroke-miterlimit="4"/></g><g clip-path="url(#63873800da)"><path stroke-linecap="butt" transform="matrix(0.744485, 0, 0, 0.744485, 0.767204, 0)" fill="none" stroke-linejoin="miter" d="M -0.00212119 3.001235 L 300.000678 3.001235 " stroke="#f94d1f" stroke-width="6" stroke-opacity="1" stroke-miterlimit="4"/></g><g clip-path="url(#85e50ef4ac)"><path stroke-linecap="butt" transform="matrix(0.000000000000000046, -0.744485, 0.744485, 0.000000000000000046, 0.756818, 67.003672)" fill="none" stroke-linejoin="miter" d="M -0.000315059 3.00257 L 90 3.00257 " stroke="#f94d1f" stroke-width="6" stroke-opacity="1" stroke-miterlimit="4"/></g><g clip-path="url(#dd93ac335d)"><path stroke-linecap="butt" transform="matrix(0.744485, 0, 0, 0.744485, 0.767204, 62.53676)" fill="none" stroke-linejoin="miter" d="M -0.00212119 2.99908 L 300.000678 2.99908 " stroke="#f94d1f" stroke-width="6" stroke-opacity="1" stroke-miterlimit="4"/></g><g clip-path="url(#7ccf1fbdf9)"><path stroke-linecap="butt" transform="matrix(0.000000000000000046, -0.744485, 0.744485, 0.000000000000000046, 219.645865, 67.003672)" fill="none" stroke-linejoin="miter" d="M -0.000315059 2.999443 L 90 2.999443 " stroke="#f94d1f" stroke-width="6" stroke-opacity="1" stroke-miterlimit="4"/></g></svg>